<mxfile host="65bd71144e">
    <diagram id="HIP3nbAZw_EuaXWnEj3U" name="Page-1">
        <mxGraphModel dx="905" dy="645" grid="1" gridSize="10" guides="1" tooltips="1" connect="1" arrows="1" fold="1" page="1" pageScale="1" pageWidth="850" pageHeight="1100" math="0" shadow="0">
            <root>
                <mxCell id="0"/>
                <mxCell id="1" parent="0"/>
                <mxCell id="7" value="http://ics2o.mths.ca" style="swimlane;whiteSpace=wrap;html=1;" parent="1" vertex="1">
                    <mxGeometry x="40" y="40" width="760" height="682" as="geometry"/>
                </mxCell>
                <mxCell id="26" value="" style="whiteSpace=wrap;html=1;" vertex="1" parent="7">
                    <mxGeometry y="23" width="760" height="55" as="geometry"/>
                </mxCell>
                <mxCell id="8" value="Area of a Trapezoid, in JS" style="text;html=1;align=center;verticalAlign=middle;resizable=0;points=[];autosize=1;strokeColor=none;fillColor=none;fontSize=30;fontStyle=1" parent="7" vertex="1">
                    <mxGeometry x="80" y="30" width="370" height="50" as="geometry"/>
                </mxCell>
                <mxCell id="11" value="Please enter integers for dimensions:" style="text;html=1;align=left;verticalAlign=middle;resizable=0;points=[];autosize=1;strokeColor=none;fillColor=none;fontSize=20;fontColor=light-dark(#000000,#FFFFFF);" parent="7" vertex="1">
                    <mxGeometry x="35" y="106" width="350" height="40" as="geometry"/>
                </mxCell>
                <mxCell id="17" value="A Base:" style="text;html=1;align=left;verticalAlign=middle;resizable=0;points=[];autosize=1;strokeColor=none;fillColor=none;fontSize=15;fontColor=light-dark(#000000,#FFFFFF);" parent="7" vertex="1">
                    <mxGeometry x="40" y="166.77" width="70" height="30" as="geometry"/>
                </mxCell>
                <mxCell id="18" value="B Base:" style="text;html=1;align=left;verticalAlign=middle;resizable=0;points=[];autosize=1;strokeColor=none;fillColor=none;fontSize=15;fontColor=light-dark(#000000,#FFFFFF);" parent="7" vertex="1">
                    <mxGeometry x="40" y="221.76999999999998" width="80" height="30" as="geometry"/>
                </mxCell>
                <mxCell id="19" value="Height:" style="text;html=1;align=left;verticalAlign=middle;resizable=0;points=[];autosize=1;strokeColor=none;fillColor=none;fontSize=15;fontColor=light-dark(#000000,#FFFFFF);" parent="7" vertex="1">
                    <mxGeometry x="40" y="281.77" width="70" height="30" as="geometry"/>
                </mxCell>
                <mxCell id="21" value="" style="rounded=1;whiteSpace=wrap;html=1;" parent="7" vertex="1">
                    <mxGeometry x="110" y="171.77" width="200" height="20" as="geometry"/>
                </mxCell>
                <mxCell id="22" value="" style="rounded=1;whiteSpace=wrap;html=1;" parent="7" vertex="1">
                    <mxGeometry x="110" y="226.76999999999998" width="200" height="20" as="geometry"/>
                </mxCell>
                <mxCell id="23" value="" style="rounded=1;whiteSpace=wrap;html=1;" parent="7" vertex="1">
                    <mxGeometry x="110" y="286.77" width="200" height="20" as="geometry"/>
                </mxCell>
                <mxCell id="24" value="Calculate" style="rounded=1;whiteSpace=wrap;html=1;fontSize=20;" parent="7" vertex="1">
                    <mxGeometry x="35" y="336" width="100" height="40" as="geometry"/>
                </mxCell>
                <mxCell id="25" value="Area is: 12mmÂ²" style="text;html=1;align=left;verticalAlign=middle;resizable=0;points=[];autosize=1;strokeColor=none;fillColor=none;fontSize=15;fontColor=light-dark(#000000,#FFFFFF);" parent="7" vertex="1">
                    <mxGeometry x="40" y="396" width="120" height="30" as="geometry"/>
                </mxCell>
                <mxCell id="27" value="mm" style="text;html=1;align=left;verticalAlign=middle;resizable=0;points=[];autosize=1;strokeColor=none;fillColor=none;fontSize=15;fontColor=light-dark(#000000,#FFFFFF);" vertex="1" parent="7">
                    <mxGeometry x="320" y="167.76999999999998" width="50" height="30" as="geometry"/>
                </mxCell>
                <mxCell id="28" value="mm" style="text;html=1;align=left;verticalAlign=middle;resizable=0;points=[];autosize=1;strokeColor=none;fillColor=none;fontSize=15;fontColor=light-dark(#000000,#FFFFFF);" vertex="1" parent="7">
                    <mxGeometry x="320" y="222.76999999999998" width="50" height="30" as="geometry"/>
                </mxCell>
                <mxCell id="29" value="mm" style="text;html=1;align=left;verticalAlign=middle;resizable=0;points=[];autosize=1;strokeColor=none;fillColor=none;fontSize=15;fontColor=light-dark(#000000,#FFFFFF);" vertex="1" parent="7">
                    <mxGeometry x="320" y="282.77" width="50" height="30" as="geometry"/>
                </mxCell>
                <mxCell id="31" value="" style="shape=image;verticalLabelPosition=bottom;labelBackgroundColor=default;verticalAlign=top;aspect=fixed;imageAspect=0;image=data:image/png,iVBORw0KGgoAAAANSUhEUgAAA3gAAAK+CAIAAAB/yisEAAAAAXNSR0IArs4c6QAAIABJREFUeJzs3VdzW1eWNmCcnM9BJkCQYJZkuWW3p2uuZn5/V8180+2kxAwmkMjx5PRdrGmYI0sWKREGw/tcdHXLVHuzitp6sfbeazFpmmYAAAAAAO4au+gFAAAAAMDjhKAJAAAAAHOBoAkAAAAAc4GgCQAAAABzgaAJAAAAAHOBoAkAAAAAc4GgCQAAAABzgaAJAAAAAHOBoAkAAAAAc4GgCQAAAABzgaAJAAAAAHOBoAkAAAAAc4GgCQAAAABzgaAJAAAAAHOBoAkAAAAAc4GgCQAAAABzgaAJAAAAAHOBoAkAAAAAc4GgCQAAAABzgaAJAAAAAHOBoAkAAAAAc4GgCQAAAABzgaAJAAAAAHOBoAkAAAAAc4GgCQAAAABzgaAJAAAAAHOBoAkAAAAAc4GgCQAAAABzgaAJAAAAAHOBoAkAAAAAc4GgCQAAAABzgaAJAAAAAHOBoAkAAAAAc4GgCQAAAABzgaAJAAAAAHOBoAkAAAAAc4GgCQAAAABzgaAJAAAAAHOBoAkAAAAAc4GgCQAAAABzgaAJAAAAAHOBoAkAAAAAc4GgCQAAAABzgaAJAAAAAHOBoAkAAAAAc4GgCQAAAABzgaAJAAAAAHOBoAkAAAAAc4GgCQAAAABzgaAJAAAAAHOBoAkAAAAAc4GgCQAAAABzgaAJAAAAAHOBoAkAAAAAc4GgCQAAAABzwS96AQDw+KVpOvvvDMMsdC0AAPDnQdAEgDlKkiQMwyAI4jiOoojjOEmSBEGguBnHcRzHDMPwPM/zPDIoAMAjg6AJAHORJEkURZ7njcfjwWAwnU49zxNFsVgs5vN5juMymYzneZ7ncRxnWZau6zyPHQkA4FHBtg4AdyxN0yRJHMfpdDrdbncwGIxGoyAIMpmMIAj9fl/TNEVRJEmiYqeqqoIgqKq66IUDAMAdQ9AEgDtGtcxut/vzzz/v7u52u13P83ie13Wd4zjP85IkKRQKuVyO47g0TYvFoqqq2Wx2dqQOAACPA4ImANylOI5t2+71eoeHh3t7e0dHR0EQyLKsKIosy5lMZvwvzWZTlmXTNBVFiaLo+oMhAAB4HBA0AeAuhWHY6XTevXu3u7t7cXERRVGlUtna2iqVSoqihGHYbrebzebx8fHFxUU2m1VVVRRFQRBYFt3WAAAeGwRNALgzaZp6nnd1dfXrr7/u7e2laZrL5Z49e/bv//7vlUqFZVnXddvttmVZ5+fnrVYrTVOe5w3DkGUZh+ZA0jSla75pmjIMw7IswzD48QB4oBA0AeBuJEkSBMFkMrm6ujo4OLi8vNzc3NzY2Nja2lpeXi4UCmmauq6byWQmk4koivQ8SNf1bDarKArHcQgTQP2wSJIkLMtSPyyO41DzBniIEDQB4G7Ecey67mAwuLq6Oj8/n0wmpVLp+fPn9XpdURT6GpZleZ4XRZHneY7jFEWxLMuyLFmWESOeLKpfkiAIXNd1Xdf3fWq8qmmaqqrX268SFDsBHgQETQC4G1EUjcfjTqfT6/Ucx+E4Lp/PUy1TFEX6mln/9iRJBEFQFMUwDF3XJUlCXHiakiTxfd+27fF4PBwOp9Op67pBEERRRBVNURRVVaWfE/p8Qu/GRFE0DEPTNLRfBbjP8OcTMlRImP3P2ePfD4oH9J+oH8CnhGFI5czxeCwIAp2Jm6Z5vVoZhuFkMun1ekEQ0Nfouq4oCsYCPU1Uwuz3+1dXV6enp0dHR71eL45jqnxTpgyCgOf5fD5fLBbp3RiVxk3TrNfr9GX44QG4txA0nzpqrO15XhzHdPt+9o9msZJlWZZlOY7jeV4QBNrZF7pquI+iKKIQadu2KIqWZRmGcT1EUmgYDofdbjcIAkVRdF2nU1FkhSeIapmj0ej8/Pzw8LDRaJyfn9MPj6IoiqIIghDH8XQ6pVsZo9GIfop4npdleWlpKZvNlkqlRX8fAPBHEDSfOmpG0263Pc+j2/ezf8QwDMdxlC9FUZRlmepPqqrKsoysCR+gNDCZTIIgkCSJ3pLzPH/98iWVr9rtdhRFuq4bhoGU+WSFYdjv9y8uLl6/fv3+/XvbtlVVXV5ezuVy1F2V4zj6JDydTofD4Wg0GgwGw+FQUZRSqWQYRhiG9EQdPz8A9xaC5pOWpilNcGk0GoPBwHGc2UtPnudn9UtRFCVJUlXVsiw6DKXzUPqndB9/0d8KLN7s/mUcx1SUun4gTuOCbNtut9uXl5dRFBmGYZombmc+Wb7vt1qtvb29N2/eHB4eWpb1/Pnzb7/9dnl5OZvNSpJEe1QYhr1eb39//+3bt5eXl+fn5/Rx9/qnYgC4txA0IcMwTBzH4/G41WrNylH5fD6bzc7ygeM4g8Hg4uKCZVlN0wzDKJfLtVqtUChQdRNZAWYdEK9f6p39uu/74/GYHqRfXFyIolgulylo4r35E0Slykaj8e7du263K0lSpVJZX19fX18vlUrXn/jEcawoCl0lH41GjUbjg2vlAHCfIWg+aXT/kq7KZTKZ4XDYarWm06lhGKqq0otgunvnOA49KB4MBtSVZmdn54cffuA4LpfL4SQdZnctqMgdx3EYhtG/JEkynU6vrq7Ozs5OT08vLy+Xl5d1Xdc0jY5Hcfr5pKRpGsfxZDI5ODh49+4dx3ErKyvPnz+nlKmq6vX9hD7crq2tGYbR7/cPDw+TJKEbF/iIAnD/IWg+dRzHmaZZKpWazaYgCEmSeJ6nKIqmaZVKJZfL0QMO27YlSZr99dDpdDiOE0UxjuONjY1KpaKqKoLCE0ctD6kpZqvV6vV6V1dXzWbTtu0wDEej0eXl5dXVleM4VPWkqeidTkeW5Xw+T3fyFv1NwNzRabjrur1er9lstlqt5eXlarVar9eLxaKqqvSufIZhGEEQqPi9ubn5zTffBEFQLpcLhQJFUuw8APcZguZTx/M8pcler9dqteiaZjabXV5epvnUs7t3vu/TAfrh4eHbt2+n0+nPP//c6XSiKNI0TZIkdLN74kRRLBQKy8vLl5eXjuNMJpP379+zLKvr+qwoPhwOZVmuVCqiKI5Go+PjY3pCtL29TTMqERqeAt/3+/1+p9MZDoee56mqWq1Wl5aWNE37VJGSYRie59fW1v7zP/8zDENVVfP5fC6XE0URPzMA9xmSwVNHx1IMwxQKhVwuZxjGcDjUNI0SQ6VSud5ZM01Tx3EMw3Bd9+3btycnJ51Op1wur66uappGjz8W/Q3BwgiCQB9R6LnGYDDo9XonJyeqqtLdTXoktLS0ZJomzX2h6rhhGMvLy7h190TMulz1er3xeByGoSzLhUKBLnz/wWk4z/NLS0uqqkZRNGvkjj0H4J7DH1H4sBn773uzXy8YyLJcq9X+9re/xXHc7XZHo9HFxcXp6Sm1tVNVFbemniye5w3DqNVqr169ymQy7XZblmVZliVJ0jRN13XTNDmOo9J4r9ejief5fL5cLuMn50kJw3A6ndLTQ6qF3/CTKvUoSJKELgQLgoAfG4B7DkETbofn+WKxKElSp9Oho/NWq3V+fj5rfbfoBcLC0B1NujOnaVq73R6NRtSYPZfLlUqlcrksyzLNG2y32/1+n+M4y7KKxaKu67hs90RQbdvzPMdxoiiiK5iSJN2ko+r1EZSzWed/4toB4NYQNOF2GIahLtz5fN6yLEmSHMeh0LCysnJ9sBA8NVRkomNQOkYfj8ee59FM6mw2S80RqVW7JEnZbJZlWVVVqZqFl0BPR5qmSZLQNLJZZLxJakT9EuDBQdCEW2NZVhAEVVWz2aymaUEQDAaD8XgcBAGCJrAsS+2udF0vlUo0t1oQBFEURVHk/kUUxVwuN+uIJAgCSlNPyvXLOeQmu8f1++Kz/5N5LhMAvhaCJtwabe50E1+WZRr34rpuFEUImjCbXEr9sGYNMq9fAqaZUh9kBSSGp4M+adBZOXXqDYJgNpbsD35jHMdxHEdRFMcxXdnENU2Aew5BE74Q3cQXBIGmDn4wJx2ess8GRxSinjJqVKSqqq7rgiDQI3TXdamD7x/XtqMocl3XdV3f91mWNU1T13UETYD7DEETvtD1k6/Z4EEAgM8SRdE0zWw2Sx3Xfd8fDofj8ZgmT34qaKZpSv2wptNpGIZUEKW36vjcAnBvIWjCF5rNGJydhKKuAACfxTAMPQUrlUrZbFYURdd12+12u92msVIf3UnSNI2iqNvt7u3tTadTjuPy+bxpmnSGDgD3FoImfAna9D3P832f53lFUTDuHABuYjZSslgslkoly7KCILi8vCyVSsVikeZHfPACPUkSGi51eXm5u7sbBEEul1NVNY5jnKUA3HMImnBr1JfE87zJZOI4DvU5outWOMACgM+it2KWZa2url5eXo7H44uLC1VVKWjmcrnrH1xpNvpwOOx0OicnJ41GQ1GUcrlsWRadvC/6uwGAP4KgCbdDm77ruqPRaDgcOo6zvLxcLBZzuRwN7Vj0AgHgAWBZVtf1ra0t27bfvXt3dXV1fHxcKpUURYnj2LIsURTpK5MkmU6nFxcXJycnp6eng8FA0zSafJvP5/H5FuCeQ9CE24njeDQaXV1dNZvNyWTCsmwul6tWq4VCAUETAG6IRj+srKzQk3N6SH5ycpLJZDqdDhU1WZZNkoTmVbbb7cvLS8/z8vl8rVajz7eYXApw/yFowv++GU+SJL0m+ZfrTZKTJPE87+Li4pdffjk4OKCbUisrK6urq8Vi8VO3+AEAfk8UxVKpxDBMmqaKojSbzW632+l0aFiUJEk8zydJ4vu+7/tRFGUymVKp9OLFi/X19eXlZdpw8OEW4J5D0Hzq6Cjc8zzqY+f7fhiGdDg+nU7H4/Esd0ZR5Pv+eDze399/+/Ztp9Oh0S9ra2uVSoWOurDpA8ANcRxnmiadfdMAiN3d3W636zjOcDgURXEWNDOZjKIopmnWarVXr15VKpXZb1z0NwEAn4Gg+dQlSUKt6chgMLBtW5KkVqvVaDQmk0mapnEc+75v23a/36cDrMvLS0VRNjY2tra2tre3KWWinAkAN0dDpGRZLpVKPM/TB9fhcBgEAT0nn+VImnlrGMbKykqtVtN1HRsOwEOBoPnURVFEdy6vrq7a7Xa/359OpzzPN5tNwzDa7XYmkwnD0Lbtbrd7enp6dnYWx7Esy99+++0PP/zw6tWrYrGoKAo2fQD4AjzP04CfWq32/fff03EKHbDEccyyrCzLqqpKkkQ1To7jMFkK4AFB0HzSqFpp2/ZoNIrj2DTNarWazWYVRRFF0XGcWVEhSRJd19fX18vlsizLhmGsra1tbGzQY3N0GAGAL0alzdlUW0EQZFkOgiBJEuruTr9IEXPRiwWA20HQfOqSJKHrmCzLFgoFTdPiOKbBbnEcu65Lg4llWaaudYZhWJaVzWZN0zQMQ1EU7P4AcFdYlhVFkY7U6Rkix3H06Af7DMBDhKD5pFEhQdM0Ov6eXY2ajTKnfZ9m/2iaZlmWZVkUMekmPnZ/ALhDH91VsMkAPFwM5nc9cVEUDYfDyWQShuGsn9F1FEZ5nhcEQZIkWZbpJAuXMgEAAOCPIWg+dXRNc9ZE86Nfw/xf6F0HAAAAN4GgCQAAAABzgdNPAAAAAJgLBE0AAAAAmAsETQAAAACYCwRNAAAAAJgL9NGEO4bnZQDwe2hVAfA0IWjCnaFOSWTRawGAe2HWE2024GfRKwKAPxWCJtyNJEmiKPI8bzqdep73+8bvAPDUzMY9SJKkKIqiKMiaAE8NgibcgSRJwjB0XXcwGLRarcFggKAJABQ0JUkyDCOfz+fzeUVReJ7HXDGApwNBE+5AkiSu63a73Uaj8f79+4uLiyiKFr0oAFgwCpqyLOfz+fX19Y2NjXK5bFmWJEmLXhoA/EkQNOEORFE0Ho/Pzs5+/fXXv//977u7u1EUzc7IcFIG8JQJglAul1+9emXb9osXLyRJEkUR2wLAE4GgCXcgjuPpdNput8/Ozo6Ojk5OTmRZNgxDVVVRFDmOW/QCAWABkiTxPG88HodhKIqiIAiiKOIAHeBJQdCEO5AkieM4g8FgMBi4risIQq1W29jYqFQq2WxWluVFLxAAFiCO406n02g0er1eq9VKksQwjPX1dcuyVFVF0AR4ChA04Q7EcUx1i+l0GgSBKIqVSuXly5ebm5tLS0u6ri96gQCwAFEUNZtN0zT39vZOT0/Pzs4ODg6eP3+u63qlUuF5HgfoAI8egibcgTRNgyBwXddxnCiKeJ63LKtara6trVUqFQRNgKcpjmM601AUJQiC4+Pj09PTf/zjH3RxU9d1BE2ARw9BE+7ArL2R53lRFAmCYBhGsVisVCrVahVBE+BpStO0UCiYpikIQqvVOj8/v7q6+uc//8nzfK1Wq9VquKkJ8OghaMIdSNM0DEPHcVzXpaDJsiz/L4IgLHqBALAAaZoyDJPP52u12s7OTqfTaTab3W738PDw4OAgl8sVi0XDMHgefxMBPFr44w13IEmSIAg8z6OK5qKXAwD3AvXRVBSlVCrt7OxMJpM4jvf29s7Pz3d3dy3LStNUkiSWZVHXBHisEDThDnxQ0UzTdNErAoB7gWVZURRN06zX69Sb4vz8fDqdHhwcqKqqqmo2m6WjD2RNgEcJQRPuAAVNuqMZxzFzzaKXBgALxrKsqqrVajVJkk6nc3x83Gw2G41GkiTlcnl5eVmWZVVVsWMAPEoImvC10jSN4zgIAt/30zTVdb1YLGazWU3T0K0dABiGEUXRsqwkSTY2Np4/fx6GIQ13ODw8XFlZEUWRwiiCJsDjg6AJXytJkiiKfN8PgkCSpHK5/OLFC+qgiWv+AEBZk+d5Xdfr9fpf//rXMAx7vV6/39/f389ms3SPU5ZlnJ4DPD4IAfBVKGVSOTOOY0VR6vX6N998s7GxgaAJADMMwwiCsLS0RIPEGo3GaDRqNpu//vqraZpLS0uaptG4INQ1AR4ThAD4KkmS+L7vOA7dzhRFsVgsVqvVfD6vqiomfwDADBU1q9Xq+vr68+fPp9PpaDQ6PT2tVCorKyuKopTLZRygAzwyCJrw5eh2pud5k8mEZgLRtA/LshRF4TgOf2EAwAwVNTVNq1arf/nLX4Ig+Omnn7rd7vHxcaVSodNz6na06JUCwJ1B0ISvEsex4zjT6dRxHKpo6rpumiauWwHA73EcJ0lSqVR69uyZ53nNZrPT6bTb7b29PRonZpomtdXEx1SAxwFBE75KHMeu647HY9d14zjmOI46lYiiyDAMzQVZ9BoB4B5hGEbTtFqt5nleo9Ho9/uTyeTo6Ih+MZfLMQwjyzIaVgA8Dgia8FWuVzSjKIqiyHXd6XRq27amaRzH4ZomAFxHObJYLIZhSHMpd3d32+320dHRxsZGoVCgubUImgCPA4ImfDm6o+m67mQycV3X933f99+8eSMIguM4SZIsLS3puo5Z5wBwHXU7sixrZ2eHnhJOp9NOp/P69WtJkjiOo1ORRS8TAO4AgiZ8lVnQ9DwvCILJZPLLL7+4rstxnGVZmqZJkoSgCQAfYBhGUZSNjY0kSbrd7sXFRa/X293dFQShUChUKhVqdYSr3gAPHYImfBU6Ordt2/f9TCYTRVG/3282m/1+37btMAyTJFn0GgHgPuJ53jTN5eXlzc3NZrOZyWT6/f7R0dHq6mqlUqGSpyzLi14mAHwVBE34KkmS0KXMMAw5juM4jq5suq5LKTNN00WvEQDuI5ZlJUmyLGtjY2M0GgVB0Ol0ms3m/v5+uVyWJEkURQRNgIcOQRO+3OyOJgVNusKfyWTCMIyiKEkSlDMB4A+wLKsoSqVS2d7eHgwGJycnlDXfvXunqipdv+E4Dt2OAB4uBE34KvTM3LbtKIqo/GDb9qIXBQAPhiAI+Xx+Y2NjMBgcHx+7rtvtdt++favr+srKSqFQUBRFEAQETYAHCves4avQ0TkFTUEQZFlGPyMAuDmWZTVNK5VK9Xr9+fPnq6urmUym2WweHh4eHx9fXl7ato2zEYCHCxVN+CpRFNFjoDiOFUWJ4xhBEwBujmEYGvRQqVRevXoVhuF0Oj05OTk7O/vll19EUeQ4TtM0nsffVgAPEv7owheiC5phGLquS2OBRFFM0xR/HwDAbfE8n8/nnz9/HgQBzaUcDAZv374VRbFUKhWLRXpriA+xAA8OMgF8oSRJgiBwXdfzvDAMGYaRJIllWQRNALgtlmVpXNDq6ur29na32z09Pe10Ovv7+5ubm4VCIZPJWJaFcUEADw4yAXyh2TMgz/PiOJZlWdO0OI51Xc9kMpIk8TyPt6IAcEMcx0mSVCgUdnZ2JpNJFEVHR0fU7cg0TTpAx5YC8OAgaMIXiqLItu3pdOp5XpqmkiTlcjlJktI0ZRhmeXnZNE2qcS56pQDwAFCINE1zbW3NcZzhcHh1dTWdTo+OjjRNM02zWq0yDIMX6AAPC4ImfKEgCGzbpuGTmUxG07SlpaWlpaV6vS4Iwvb29tLSEq7wA8DNMQxDr4LCMOx0OmdnZ0dHR+fn5yzLlsvlra0tlmXpsuaiVwoAN4UQAF+IKpoUNBmGUVV1aWlpZ2dHkiRZlvP5fD6fVxQFfyUAwM0JgmBZVhzHm5ubZ2dn4/H48vKy0WgcHh5ub28zDCOKIg7QAR4QBE34QtSFZDwe05RzVVXz+Xy1WtV1XZIkRVGozTKOzgHg5qjbkaqqq6ur33//PfW1GAwGBwcH2Ww2iiJd1wVBwCdYgIcCQRO+UBiGdEfT932GYRRFyWazxWLRNE3Kl9SLBIUHALgtSZKq1Wqapr7vn5+fD4fD8/PzJEk0TVtbW9M0Dfe/AR4KBE34QrOjc5oJpCiKqqqqquK4HAC+EsuyqqqWy+X19XV6hN5ut+kA/ejoiOf5YrFIj9AXvVIA+AwETfhCFDRpJpAgCJIk0d2pOI7jOGZZlu5RoaIJALdFHXlVVa1UKi9fvvQ8z/f9/f39RqPx9u1bQRB4nqc9Z9ErBYDPQNCEL0RH57Zt0zmXIAhxHI/H416vF0WRpmm6rtPoc1QdAOC2WJaVJCmfz29tbdm2fXl5eXh42Ol03r59q6pqLpej/u14GARwzyFowhcKw9BxHMdxqCMJwzCj0Wh/f//k5MS27fX19c3NzXK5TG+DFr1YAHh4GIbRNK1WqzmOc35+fnp66rru27dvqQVSoVCguibu6gDcZwia8IXo6NxxHJZl6V6mbduDweDnn38eDAZRFFmWZZqmqqqLXikAPEgsy4qimMvlarXa1tYWTQk6PT09Ojo6Ojoql8uCIOTzeRQ1Ae4zBE34QtTeyHEcjuOok1EYhsPh8OLiotPprKysTKfTIAiSJFn0SgHgoWJZVhCEbDa7s7Pj+34Yhs1ms9vtvnv3TlVVeoaIWUEA9xmCJnyJNE2DIHAcx3Vdy7JUVZUkKUkS27Z7vV632x2NRjQDPU3TRS8WAB4wlmWpq5Eoiu12e29vbzweHxwciKJYLBbL5TJa9gLcZwiacGtJksRx7Pu+4zhBEPA8r+u6oigsyyZJEgQBFR6SJEmSBEETAL4GzTc3TTOTyWxtbb18+fLo6GgymTQajYODg1KpxLJsoVCgm+KLXiwAfAhBE24tjuMgCDzP8zwvDENBEDRNUxRlNtYc4RIA7hBd1jRNc319/W9/+xvDMD///PPV1dXe3l6hUKA5ZJIkIWgC3EMImnA7s0Nzx3F830/TVJIkXddVVZ0FTQCAO8QwDF3WXFpaevny5Xg8vri4aDabzWZzd3fXMIxsNqsoiizLOEAHuG+QDOB26HB8PB5Pp9MwDGn4pGEYqqqmaYqKAgDMA2XNXC7HMEyn0zk5OXEcZzQa7e3tWZZVrVZN02RZVpblRa8UAP4PBE24HZo+PBqNJpNJGIY0KY6CJg09X/QCAeBxYhiGTk7q9TrNpdzf32+1WsfHx6urq6ZpUltN7EIA9wqCJtwOBc1ZRZN6GxmGoShKHMeLXh0APFoMw3AcJ8syHaB7njccDk9PT8/Ozt68eSPLsqZp2WwW/dsB7hUETbidWUXTtm2qaFLQ1DQtDEPa6yl3CoLAcRyqCwBwt7LZ7NbWlu/7zWaz3++PRqP3798rilKtViuVCk2+xc4DcE8gaMKt0R1N27ajKJpVNA3DSJKkXC5vb2/n8/mVlRXLsiRJwt18ALhDNPO2WCyurq7u7Oz0+/1Go9HpdA4ODtbX16mzpmVZgiAseqUAkEHQhNtJ0zRJEjo6t207SRJRFBVF0XXdNE2O4+r1uuu60+l0c3OzWCxe73kEAHAnOI6TJKlQKDx79mw6nfq+f3R0dHl5ubu7a1kWtcJAURPgnkAIgNtJ09TzvPF47DhOJpORJIm6itAl/TRNOY7zfb9YLObzeXQbAYA7xzAMz/OmadbrdZpG1mq1bNs+OjpSVVXTtHw+T1kT+w/AwiFowu3M7mj6vk+t2mVZFgRBEASe5+kkPY5jip6iKOJiPgDcOYZhJEkql8ue57VarWaz2Wg0zs/PkyQplUrLy8uUOBE0ARYOQRNuZ3Z07nmeIAi6rtPVe0qZsixblrXoNQLAI8cwjCiKoigmSbK1tXVxcTEYDA4ODsbj8cbGxubmJl3TxNUdgIXDH0K4tVnQFEVR13U0rgOARZFluVarfffdd0EQTCaTVqt1dHT0z3/+M5PJ/PWvf1VVddELBHjqEDThdmaTgXzfV1WVgiadTyVJkiRJHMdpmrIsS72NcHQFAPMjimKlUknT1HGc4+PjTqdzcXFBt3rW1tZyuRxuagIsFoIm3E4cx77vT6fTIAiooinLMsMwYRiGYTgej/v9fhiGlmVls1lN00RRxC4PAHPC87ymaaVSaW1t7cWLF9PpdDAYXF5eHhwcbG1tybJcKBRwWRNggRA04RaoYOl5Hs2fFEXRMAwKmlTmPDs729vbs22brklRRVMUxUUvHAAeLcqa1Wr11atXYRj+9NNPl5eXx8fHb968obfnaH8BsEAImnBTSZL7ItgKAAAgAElEQVSEYei6ruu6nudlMhmaci7LMnVxn0wml5eX7969Gw6HNL2DRgQteuEA8GgxDEMPg3K53NbWlud57Xa71+sNh0MaF5TP52l0GQaVASwEgibcSJqmVMucTqeu60ZRJEnSLGgyDBNFkW3b3W73+Pi42+2WSqXt7e0gCJIkWfTaAeCRY1lW1/VarRYEwenpabvdbrfbe3t7PM+vra2VSiWO41RVRdAE+PMhaMJNxXHsui61ao+iSNM0TdNM06RjqTiOgyCYTqe9Xq/dbg+HQ8qjaZoueuEA8MixLCtJEsdxy8vLW1tbnU7H87yLi4tGo3FwcJDP56nvJg7QAf58CJpwI2maRlHkuu5kMrFtO45jnud1XZ+9OqeSZxRFvu/7vh+GYRzHSZIgaALAn4BlWUEQTNPc3Ny0bdu27Var1e1237x5Q0Ml8vk8BqAD/PkQNOGmqKI5Go0cx4njmBqIUEXzg8tPCJcA8OdjGEZRlHq9niRJv98/PDy8urra39/nOK5YLG5sbAiCwHEc6poAfyYETbgRKlg6jvNB0KT2Rti4AeA+oBno1Wp1a2vrxYsXmUym1+s1Go3Dw8P19fUoinK5HF0rX/RKAZ4KBE24qdkdTdd10zSdBU1JklDCBID7gGEYQRAMw6jX6z/88EMmk/mf//mfXq93cHBQKpWSJBEEgeqayJoAfw4ETbgRqmhS0PR9n67eK4qiKIogCGEYLnqBAAAZhmE4jlMUZWlp6ZtvvrFtu9FoNJvNZrP5yy+/KIqSy+UURfn9hR8AmBMETbgpCpqTySQIAkqZ1AyZZVnmX1iWpeGTs19c9KoB4GlhGIbnecuy6vX6cDg8ODjwfX88Hr99+zaXy9VqNcMwWJbFATrAnwNBE25kVtGkmUCKoqiqKooiVQUoYgqCoCiKZVm+79OROmoGAPDno66ZHMfV6/Xnz5/btr23t3d+fk43NQ3D4HleEARcLgf4EyBowk1Re6PxeBzHMTXRnM0xp3tRmqbR007LsqrVqmmalDUXvXAAeFroAF2W5VKp9O233/q+PxgMms3mxcXF69evadiEruvodgTwJ0DQhBu5XtGkbu20TVPBkoKmruvVavXly5eTyWR9fT2XyyFoAsCiMAxjmubz58+jKDo/Pz86OhoMBtRWc2lpqVQqzc5kFr1SgMcMQRNuahY0kyShoCmKIu3RLMuKokhdRTKZjO/7pVIpn88rioLDKQBYiNkM9JWVlWfPnl1dXZ2fn/f7fep2lMvlMpmMZVmoawLMFYIm3Mj1iiYVL68HzVlFUxAEy7KSJJFlWZIkaiOy6LUDwBNFBct8Pv/8+XPP8zKZzPv37y8uLnZ3dy3LkiRJlmWe51HUBJgfBE34PEqZQRC4ruu67qyD5vWgyXEcx3GiKBqGsej1AgBkZluTYRhra2txHLfb7YuLC+p5ZFlWNpvN5/OiKM5uAQHAnUPQhM+glOn7vuu6nueFYUizNwzDmAVNAIB7SxCEQqGQpunOzk6z2Tw5OWm32+/evSsWi5VKRZZlPAwCmB8ETfg8CpqO43ieF8cxBc3rj4Eoj6ZpmiRJHMdpml5vpYkwCgALRFd6BEHY3Nw8Pz8fj8eNRuPk5KRWq62vr9PhDIImwJwgaMJnpGkaRZFt25PJxPf9JEno3Y+mabOteXa2btv2eDwOw9AwDMMw6JomgiYALBY9DFpeXv7uu+88z5tOp4PB4PDwMJvNsixLjYGxUwHMA4ImfN4saNJtelmWP6hopmkahqFt2+12+/z83HXdarW6vLxMmzgengPAwvE8Xy6X4zgej8fNZtO27Var9fr1a8MwKpVKNpsVRZHn8XciwB3DHyr4jFmIpKCZpqkkSZZlXX8MlCRJEASj0ej8/PyXX34Zj8fffPONKIpU0cSZFAAsHMMwmqaVSqW1tbVnz545jnN+ft5sNg8PD1dXVw3DKBaLpmmirglwtxA04TM+CJp0AkUn49eDpu/7o9Ho7Ozsxx9/7Ha7LMsWi8VcLqdp2qK/AwCADBU1NU1bXl5++fKl53mTyeTy8vL4+LhSqWiaxnGcruvoyAZwtxA04TNmdzSn02kQBCzL0iNNVVVn/efoazzPG41Gl5eXrVar1+s5jhOGYZqmi/4OAAAys46/uVxufX19Mpk0m83BYDAcDvf29lRVzWazhUIBnTUB7haCJnwGVTQdx7FtO4oinudlWdY07YPtePbkPIqiMAyjKEqShJ6iL/o7AAD4XyzL0rBc27bPz897vV673T4+PuZ5fmVlZXl5OZfLsSyLuibAXUHQhM+YHZ3bth3HsSRJiqLQ5Uu88gGAh4Xm5VqWVa1Wt7e3u92u53nNZvP4+Pjo6KhSqdAJO4ImwF1B0ITPo6Nzx3HoNr2iKGhaBAAPFGXNbDa7ublJH6F7vV6/33///r2qqjRJiC6gY5cD+HoImvAZdP/ScRzXdRmGMQyD9uJFrwsA4AvRZ+bV1dU4jvv9/vn5+dnZ2fHxcZqmuVyuWq1KkiRJEoImwNdD0ITPmN3RpKBJz4BwaA4ADxe9Cspms7VabWtr6+zszPO84XB4cHCwsbGxurrK83ypVMKUXYCvh6AJn/FB0JxVNH+//9JJE/svOHgCgHuLZVme53VdX11d/f777+M4/vHHH/v9/uHhYalU4jiOGmvQVrboxQI8YKhLwR+ht+QUND3Po9tLHz06p11bkiRVVXVdpzfp2KMB4N6iZm1LS0vPnj179uxZsVjMZDKXl5dv3749PDwcDoee5yVJsuhlAjxsqGjCJ1HKjKLI933XdX3ftyyLppx/EDQZhuE4ThRFXddLpRLLstlsVlEUtKMDgPuM53nLslZWVkaj0fHx8XA4tG17b28vm81ubW3JskxhFPsYwBdD0IQ/Esex7/ue5/m+H0URzQT6fUWTLjypqlosFjc2Nug2vWmaoiji2RAA3Fssy9Kl83q9vrOzMxgM9vb2ms3m0dHR0dGRoiiiKAqCgBnoAF8Mf3jgk2a3M6fTqe/7mUxGkiTTNGlfvv4Rn2VZSZJyudzm5qYgCK7rVqvVpaWl39c+AQDuD7pKLopisVh88eJFEASTyWQ4HF5eXv7jH/9gGIbuAiFoAnwx/OGBT6IJ5pPJZDqdhmFIH/0paH4QHzmOoy7u2Wx2Y2MjSRKe56npMY6cAOCe4zgum82+fPlSkqTz8/NGo9Fqtf7rv/6L5/l6vb68vIxWRwBfDEETPmkWNCeTSRiGlCYty/ponZKuadJNzdmvLGLVAAC3Q5d/6Ir5zs4ODaXsdrsnJye7u7uGYaysrGSzWUEQFr1SgIcHQRM+6YOKJsMwiqKYpqkoyk0OxNM0RdYEgAeBsmYul3v27JnjOFEUXV5eNpvNd+/e0Udr6qSBPQ3gthA04ZMoaE6n01lF8/rR+Qcb7uyJehRFHxydY2sGgHuOYRie51VVXVlZ8Tyv2+3u7e35vn98fKxpmmVZhUJBkiQ6t1n0YgEeEgRN+KQ0Ta9XNOkzvWEYiqJ8MBmIUmYQBK7rTiaTOI7pBr0kSbhEDwAPAhU1C4VCGIaXl5dbW1sXFxfNZpPjuHK5XKvVFEXRNA3tgQFuBSEAPmlW0bRtO01TURRlWVZVVZKk3wdNep/e7XabzabneeVyuVKpZLNZqhMs7psAALgpjuN0XS+Xy+vr6y9fvozjeG9v7/z8/OjoaHV1lW4N0VnNolcK8GAgAcAnzYImDZ9UFEVRFEEQfn9uniSJ53mDweD4+Pinn34ajUbffPMNRUzalxf3TQAA3NT1A/S//e1vURS12+3BYHB0dGRZFs/zsizf8JI6ABAkAPik60GTNl9Zlj/asYi+cjgcnp6e/vjjj51Oh+O4paWlXC6n6/qClg8A8CUEQaBx5+Px+Pj42HXdTqfz+vVrXdeXlpZM06Q8igN0gJtA0IRPmgVNz/MEQdA0jQay/f4r0zSlGULj8bjVarVarcFgQC83MSkYAB4WevjI8/za2tqLFy9c1202m81m8+DgYHV1VdO05eVlwzBQ1wS4CQRN+CR6DGTbtud5mqZpmvYHXYvpPVCSJHEcR1EUx3Gapmma/umrBgD4WjzPsyxbqVS+++67MAxd1200GsfHx9VqlT5y/35uBQB8FIImfBI9JJ9MJr7vZ7NZXdc/VdEEAHhMaAJFNpvd3t62bfvi4uLy8nI4HB4eHpqmWSgUcrkcy7IYfgbwWQia8El0dO44ju/7oijS53jsqgDwRCiKUiqV1tbWtre3u91uq9VqNpu6rlcqlWKxyLKsYRjYEgH+GIImfASdeodh6Hme67phGIqiiIomADwpoijyPF+tVre2trrdrud5nU7n5OSkVquVy2VRFBVFmQ3dBYCPQtCEj6BDc8dxqJxJn+wNw0BFEwCeDpZlWZbNZrObm5uu69q2PZlMBoPB/v4+ffDO5XJ0m3PRKwW4vxA04SOoL6Zt267rRlHEsixN+vmDiibDMOz/heGTAPAIKIqyurqayWT6/f7l5eXFxcXx8THLsvl8vl6vi6IoiiKyJsCnIGjCR8Rx7HnedDqlFkU8z2uaRhXNPw6aPM/TAKFZX3dkTQB40ARBsCwriqLNzc2zszPXdbvdbqPRODw8XF9fz2QyhUJBVdVFLxPgnkLQhI+I49hxnPF4bNt2HMezoPmp9kaUMjmOkyTJMAzP81RVFQQBn/IB4KGjF+iaptXrdep2ZNt2v9/f398vFouZTIa6HS16mQD3FIImfEQURY7jTCYTx3HiOFYUZXZ0/qmgKYqiYRjVavXly5eDwWB9fT2Xy8myjPmTAPDQsSwrSVKpVNra2hoMBufn55PJ5Orq6vXr15qmlUolwzDoGGfRKwW4dxAC4CPiOHZdl4JmkiSCIOi6ThXNjxYpOY5TFKVcLnMcl8vlPM8rl8s0qw1BEwAeAZ7nLcuq1Wr9fv/i4mIymYzH4/fv32ez2Xq9ns1mLcvCc0mA30MIgI+YBU3XddM0FQRBVVWaDPTRoEkf90VRNE2zXq+nacpxHMdx9CRoEd8BAMBdYllWUZRisbi2tnZ1ddXv91+/fn12dlYulxuNRrFYpBvqKGoCfABBEz6C7mhOp9MgCFiWlWVZkiRJkgRB+NRvoXc/LMv+wdcAADxcDMMIglAoFJ49e+Y4zmg06vf7rVbr559/5nmeTn7w6RrgAwia8BGzO5pBEFA5U5ZlauHx2T30+nxzbLgA8JjwPJ/NZre2tuI4bjabJycno9HozZs3LMvWarWlpSX6sI2tD2AGQRM+IkkS6k4cRZEsy7ND8z/ePZMkieM4juPrR+eImwDwaDAMI0lSNptdXl5+9uxZq9VqNBrD4fDo6Gh/fz+Xy62srORyOWRNgBkETfiIKIooaNKTc8MwRFH8bMoMw9D3/dnvUhRFEAQ8BgKAR4MuCImimMvltre3bdtO0/TXX3+9urp6//69rus8z8uyTJ+0F71YgHsBIQA+gh4DUUXTsixd1//4AzqNrJxOp71er9lsuq67tLRUqVQsy2IYBlkTAB6NWVvNlZWVKIr6/f7Z2Vm/3280GqqqZrPZXC4niuKnnk4CPDVIAPARs8dAVJvUdf2PZ6xRMO12u3t7e//zP/8zHA5fvXr1/fff08d6BE0AeEyoczB1a6ebmkEQXF1dZTKZSqVSrVaphTCCJgCCJnxEmqZ0dE5NNOno/I8rmmma+r4/Go1OT09//PHHdrstiuLy8nKxWNR1/c9dPgDAfNFBjaZpmUxmfX39xYsXruu+f//+4uLi6OhoeXlZlmVFUXiex01NAARN+D/oQU8QBK7r+r4/Gz75x3c00zSlO5qO4wyHw8FgMJ1Ofd+nh0F/7ncAADB3dIAuy3K1Wv322289z2u1Wu12u9FoWJYlSVKxWFRVFd2OABA04f+YpUzXdYMgEEVR0zQ6Ov/j7TJN01mm/P1/AQB4fHieL5VKdKRzdHQ0Ho9brdbr169N09zc3NR1XZIk1DXhicMNEvgNHZo7jmPbtud5cRzPhk9+NmgCADw1LMtqmra0tEQH6Ovr63Rr8/Dw8ODgoNls2radJMmilwmwSKhowm/SNA3DcDqdTiYT3/czmYwkSbOgiYvtAAAfoG5HpVLp1atXURT5vn92dnZ2dvbzzz+zLMtxnCRJmIEOTxmCJvzmo0HTMIybHJ0DADxBNJfSsqydnR1Kma1Wq9frvXnzRlGUQqGQzWYFQeA4DlsoPE0ImvCb60HT87xZ0Pzsq3MAgCeLYRhZlovFYr1e39nZGQwGNDFI07RarZbP5zmOo17ui14pwALg5x5+Q0HTtm16Mz47OkdFEwDgU6ioaZpmtVrd3t7u9/uu656fnx8fHx8dHZVKJVmWRVFE0ISnCT/38JsPjs5pqq+maaqqoqIJAPAp1FmTHpvbtj0ejxuNxmg02tvb0zRNlmXDMBRFwS4KTxCCJvwmTVOaJEnDJ6lLnKZpiqJ8thscXXsXBIE6FYuiyHEcesgBwNMhy3K9Xs9kMr1e7/3791dXVwcHByzL5vP5lZUV0zQxLgieIARN+M2somnbdpqmFBkFQfjsiQ9F0kKhsL29/R//8R+j0ejbb7+tVqu4lgQATwdNuCiVShsbG999950gCN1u9+Li4uDgoFar8TxfKBRUVcXHb3hSEALgN7Og6TgOy7KyLKuqepOkSM3kqtWqpmlra2tBEGSz2VwuR2fuf8raAQAWjA7QDcPY2NhwXZdl2f/+7//u9Xr7+/uFQkEQBFEUZVnmOG7RKwX48yBowm9mj4Fc12UYRlXVmwdNKnyqqkpzMujcHIdEAPCkMAxDbTWfP38+HA7Pzs48z+t0Oru7u4ZhFItFuoyEox54OvCzDr+hO5qTyYQqmvQM6IYbIsMwDMOwLIsNFACeMipqsiy7sbFBb4MGg8HR0ZFpmnRTk2604wAdnghkAvhNkiSziqYgCBQ0ccoDAHBz1FZTEIRarbazszMej23b7na7x8fHx8fH2WxWFEW8QIenA0ET/leapkmSBEFAQZPem9+8ogkAANePd4rF4vPnz13XHQ6H4/G41Wq9efNGkiRVVQuFAn3ZohcLMHfIEPC/0jSlQb2O4wRBwPO8rus3r2gmSZIkSRRFQRCkacrzPN3anNNmmiRJHMf0L03TlDZ37l/u/F8HAHBbhmGsr697nnd1ddVutweDwd7eniRJlUplZWVF0zQMwoCnAEETMtdTpuu6vu8nSULDJ29Y0aRSqOM4/X6/1Wp5nlcqlUqlkmmakiTdeU00SRLf9yeTiW3bQRDEcUwpU1XVbDaraRr2bgBYOEmScrncysrKzs5Op9PZ29sbDofHx8eHh4eVSmV5eblYLOLICB49/IhDZhbdbNt2HIdmAsmyrOu6pmk3KRAmSeJ5Xq/XOzg4+PHHH0ej0cuXL//yl7/Qnfd5BE3HcdrtdqvVGo/HnudRM6ZisUhxE0ETABaOXqDncrmtrS2a6/v27dtWq7W7u2uaJpU8aaoFtix4xBA0IUMVzVmNMAxDhmEURTFN81YVzfF4fHFx8euvv3a7XUmSqtVqoVDQdX0eq6V+n51Op9lsDgYDhmF0XXddlyqpaKsEAAtHJy2aptVqNdd1+/3+5eVlv98/OTmRJIlmo7MsS3PUFr1YgHlB0ITMLGjSTKAwDFmWVVX15kfnmUwmjmMaX9nv9zudzng89n0/jmO6QHm3Zn2UkiShviFpmtJbTsdx5vFvBAD4AgzDSJKUz+dXV1fb7fbZ2VkQBN1u1/f95eXljY0NjuOo4RGKmvBYIWhCZnb2fT1oKopCQfMmH7XTNE3TNI7jMAw9z6OLnlEUzV7q3C2GYQRBUFVVURTatenfNZ1O6SnSnf8bAQC+DD2sLJfL6+vrl5eX0+n03bt3vV7v8PBwc3OTxgUJgoCiJjxWCJqQ+f3ROd10vFVFM/2X2UtwMo/VUpHAsqxCoWAYhiiKtJVrmiYIAsMwaZqiPAAA9wR9dK9Wqy9fvnQcp9vtjsfj09PT//f//l8mk6H+HihqwmOFoAmZD47OoyiSJElRFF3XFUW5h5+z6elPNpstFAqmacqyzDBMPp+n03O6wTnLuLMhHNjEAWBRBEEoFovPnj2zbfv09PTy8rLVav3jH/8wDGNlZcWyLE3TqB/colcKcMcQNCEze80znU5d16WuHLIs03CL+/mwhm7QC4JAjZno6ZJlWZlMZjKZuK7rum6SJFRIoFdNmPkGAItCF9+LxWK9Xn/27Fmv17u4uDg7Ozs4ONjY2NA0bXl52TCMe/jBHuArIWhChiqadEfT8zye5xVFkWWZ5/n7mTJnc4zo7flgMOB5XtM0XdfDMGy1WldXV71ejy6bLi0tra+vcxwnyzIOpwBgIegJoyRJS0tL3333XZIkf//739vt9snJya+//iqKIn22xx4Fjw+CJmRmR+e2bfu+z/O8qqr3OWjS7c8wDF3XnU6n0+mUaplJkvT7/SiKaA4HtXPv9Xr0RD2Xy9E3tejlA8BTRK8Yc7nc5uZmHMdnZ2f7+/uj0Wh/f1/X9aWlJcuyqPEwsiY8JvhLFzLXG7aHYShJkqZpsizf20McSpm2bY/HY+ow7zjOaDRqNpu+7wdBQO2WhsPhyclJq9Wi90kbGxvlchlBEwAWhYqa+Xy+Xq/v7OxcXFx0u91ms6lpWr1ez+VyHMfpuo5tCh4T/DRD5npFMwgCSZJ0XZck6eblTOpLTL+xWCxSV0tFUeZ0xTNNU7pROh6Pac00PNO2bdd10zQ1DEMQhFar1W63p9NpLpcrFAr5fD6fz9/5YgAAboiKmqZpxnG8ubnZbrdfv359enp6fn5+eHhYKBQkSaL+7ShqwqOBoAmZD4Kmruu6rtNtoRv+dvqYns1m19bW/u3f/m00Gj1//rxUKt2wDeeXrXY8Hg8GA8dxkiShX1cUpVgs0mVN3/dHo5EoinSVk0aio8UmACwW3cLUdX19fT0Iglm3o3fv3tE1TdM0JUm6twdKALeFoAkZOmieBU1RFDVNu1VFkx535/P5ra0tWZY9z1taWqpUKtSw485XSxXN8Xg8HA5d12UYhud5SZIKhcLm5malUhEEYTgcdjody7KCIEB5AADuD+oEXK/XFUVpt9vHx8enp6f7+/ssy5ZKpZWVFcMw6PHQolcKcAcQNCETRVEQBJ7n+b6fpqmqql9wdE5PiIrFoiRJYRhSWVQUxXnslbPR6tPplGXZQqGwsrJSr9dXV1crlUqhUGAYxvd9lmVpUJAsy7eNzgAA80Mz0DOZzObm5jfffENvg5rN5sHBQbVa5TiuXC7TFwA8dAiaTx1VB13XpVc1DMNQ0LzV0Tnd0aSrRbIsJ0nC8zwNVZtHKXF2dD6dTiVJWl5e3traevbs2fr6uqZpLMsmSRJFkeu64/GYeoJSP2ScRgHAPUG75erq6g8//BDH8WAwGI1GBwcHuVxOFEVVVVVVxVEMPAIImk/dbMq54zhRFNHnbMMwblv/o6zJcRw1UWf+ZR5rvh40BUHIZrO1Wm1paSmbzbIsO+sJSm+D6IlSNpud04VRAIAvQAdBxWJxe3t7OBzSAXqn09nd3TVNs1wu03xd3PyBhw5B86mL45gqf67r0vBJCpq3qmh+YN7bIjVjmkwm0+mUdup8Pj8byx4EgW3bg8FgMplEUSQIgmEYlmUhaALAvcKyrK7rlUplfX19Z2fH9/1+v99oNLLZbL1etywLn5DhEUDQfOqSJKEmlLZt05G3ruu3DZo0p4deFHmelySJJEmSJM3p9JyCJvU2yufzhUKBppzTP42iaDKZ9Pt927bplZJhGFSjxX4NAPcKXeyp1WovXrxwHMe27W6322g0Dg4OTNNkGIaKmoteJsCXQ9B80tI0jePYtu3RaOQ4ThzHVP8zTfNWDdvpoidtkRcXF7NX55ZlKYpytw/PKdT6vk+H4+VyOZfLWZYlCAJ9QRzH4/G43+97nkcpk14CYd4GANwrdL9IluVisfj8+XPHcTqdzmAwuLq6evPmDd0vN01zTg2JAf4cCJpPHVU0h8MhNaQURZHqf7eqaFLyGwwGR0dHP/3002g0evnyJbUmFgThboMmPTmn4ZO+79MdTdqL6QuiKKIWm2EYmqaZy+UURcE9JwC4n1iWNU1zfX3d87xms9lut4fD4e7uLr09L5VKoijOqYMHwJ8AP7hPXZIkVNH0PI+6u6mqqmnarfY1aoo+nU7b7fb+/v67d+/Ozs6Gw6HneXEc3+FqZ6XT6XTqum4cx7Is53I5GgVEXxPH8WQyGQ6HYRhalpXP5ylo3uEyAADuCm28uVyuVqvt7Oxsb2+bptnv9w8PDw8PD09PT/v9fhRFi14mwBdCRfOpmwVN3/ep3YaqqnSd8VYlQLqgOZlM2u02nf7Q66K7HcZDb+TH4/F4PA6CgGVZVVWz2ez16cBxHE+n0+FwGEWRaZqGYfA8H8dxHMc0k+MO1wMA8PXo/CebzW5vbzuOEwRBv9+/urqiF+iiKOq6LggCti94iBA0n7okSejVOc0EUlVVlmV6xHPz/xO6NxlFked5k8mEbnyGYZgkyZ0HTdd1h8PhdDqN45jeyFN7eVowrYTO1j3PU1XVdd1Op5PNZuM4vl74BAC4JyhBapq2uroahmGv1zs+Pm61WmdnZ4Zh5HK5SqVCzytxgA4PDoLmUxfHseM44/E4jmNFUWiczxd8bk6voXxJ7na1s1jsui69W6IP+rP6K12up/9Jd09d16U661/+8pednZ1sNnu3SwIAuBOCIFiWtby8vLGxsbOzk6bpZDI5PDwsl8srKyuiKGazWUmSFr1MgNtB0Hzq6NU5BU2qDn5Z0PzT0MDMNE2pPEnnStcXzLIszZxkWZZ6bdLFgFwut7q6utC1AwB8Es3LKJVKm5ub7XbbcZy9vb3z8/PDw0Mae6Yoyj3fnwF+D0HzqaM7mpPJJE1TTdM0TbvPpzMsyxqGUavVWJatVmxHdmoAACAASURBVKuCIGxubsqyfP1rVFXd2tpiGGZzc7PX62UyGV3Xq9Xq2tqaoiiLWzsAwB+hAxlJkpaWlr799lvP80ajUbPZPD8//+c//0mP06l/O7ImPCAImk8avRZ3HGcymdBoXbrveG93MY7jTNOs1+v5fD4IAo7jqHvR9QXLsryxsVEqlSaTyWQymU1vpz16ocsHAPgMQRCKxSLLsp7nnZ2dDQaDdrv9888/a5q2sbFBO97d9owDmCv8sD5ds0czruv6vk/n5vf8bSN93Ke5bUmSsCwriuIHey7P85Zl6bqez+dnPZvoHue9rdQCABCO4xRFKRQKq6urOzs7NAb96urq4OBgf39fUZRKpZLNZrGbwUOBoPlEpWkaRRE9lHFdNwxDGj55z+9o0kMflmVnz4w+2rGIvmw2DYhlWTQ2AoCHgj5Cl0qlly9f+r5v2/a7d+8ajcaPP/7IcRzdTUfQhIcCQfOJStM0DEN6BuS6Lk0np5lAXzCCgmEYnucVRcnlcsvLy4IglEql23Z9v6HrKXPWFuSjS5qVMBExAeABoe3LMIx6vT6dTpvNZrPZdF13f39f0zQaF6SqKs/ziJtw/yFoPl1BEEwmE+qsnqYpDdWloHnbZMayrCRJlmWtrKz89a9/HY1GOzs7xWJxTiN5br48REwAeIjozg8doG9tbbVarYuLi7OzM1mW19bWKpVKuVw2DANBE+4/BM0niiqaNKrRdV16Q2Oa5pcdnf9/9u70t5HsOhu4at+Lqyiu2rvV05nYDuzESID86fmQ5AUCJIDtmZ6e7pYoUSslkeJW+17vhwMTnbHj3kRRop7fB6Mx7iGLGqr48Nx7z6GFHtM02+02DU9vNpuLC5oAAKuNlol0Xa/Vant7e+PxOAzD9+/fn5+fHx8fb2xscBxHS0bImvDIIWg+UzQ0nIImnZj5loomzU+jNR1RFOM4NgyjUCgsYukcAOA5YFmWWrhvb2/T6N3Ly0vHcQ4PD2VZpu/2dLvG0g08ZgiazxRVNC3LmkwmYRhS0DQMQ9M0OkDzRY9GX77ptqhpWp7nPM/zPI9+bwAAX41lWVVVm80mwzB3d3fdbvfs7Ozk5CSO4/X19Xa7raoqy7JYOILHDEHz+YrjmKbmJEkiiqKiKIqi0NDwr0iHtHudznov5noBAJ4XWiwyDCPLst3d3devXydJcnV1dXZ21u122+02x3EbGxsUN5d9sQB/HYLmMzVfOp/NZmtra5qmqaoqiuJXN5ukk+BZlmVZRvdH6iiEiiYAwLegsbqtVuu3v/1tnueu697c3JycnJTLZfpuL4riY+5/DM8cguYz9XHQZBiGguZXD5/M8zxN0yRJgiBwXTdJEpoz9C3JFQAA6Hs7tdU8ODhwHOfs7Gw8Hg+Hww8fPpimWa1WNU0zDANbleBxQtB8puanzi3LYhjmq3dnzh8tiiLHcYbD4eXlpe/7jUaj2WwWCgWs6QAAfCOO4zRNq9fr29vb+/v7lmVNp9PT09NyudxqtQqFAs/zmqYhaMIjhKD5TFHQdBzHtu1isWiapqZpgiB83aPRNEs6FPnDDz9YlvXdd9+JoiiKIo3nue/LBwB4RubTd5vN5qtXrxzH+fHHH0ejEZ0NKhQKtMNeFMVlXynALyEBPFPzGqRt25VKxTRNmjPxdV+Isyyj2DoYDLrd7mg00nW91WpVKpU0TRdw+QAAzwu1K65UKi9evIiiaDQaTafT4XD47t07RVEKhYJpmnQPR10THhUEzeeIBp0HQeA4jud5PM9TRfOrt/jMJ6dPJpOLi4vBYLC1teU4ThzHdDYIAAC+EW1z2t3dZVn2/Pz8+vp6Mpm8f/9ekqR2u12v13me/4pGyAALhc1zzw4tmvu+73leEARxHEuSRBXNbzm3mGVZmqZhGLqua9u27/tRFKVp+vFccgAA+BaCIBSLxUaj8eLFi5cvXxaLRdu2z87ODg8PT05OxuNxHMfLvkaA/wUVzWcnTdMgCGzbtm2bWrWrqlosFukw0Lc8cv6/3d8lAwDA2rxjsa7rL168oEqBbduDweDt27eKovA8r6oqmhnDo4Kg+ezkeR6GoWVZjuNEUTQPmt+yRxMAAB4GwzCKonQ6nSRJBoPB+fn5cDjs9XqqqlYqFerfTqPaln2lAGsIms9OnudZlgVBMJvNLMuKoojjOFVVC4WCrusImgAAjx/P84Zh1Ov1nZ2dfr+/trY2Ho+73W6j0Wg0GpIkFYtFWZaXfZkAawiazxEFTcuybNv+OGh+4x5NAAB4GCzLKopSLpe3trbu7u5c1727u7u5uen1eu12W9d1ai2H+zk8Bgiaz848aDqOkyQJtfmloMlx3LKvDgAAPo1lWUmS6vU6tdW8vr7u9/sXFxc//vijKIqGYZimiVlB8BggaD47dBiIgmaWZaIoqqqqaZosy99yV6Lh5jzPS5Iky/J8+CRucwAAiyAIQqVSyfPcsqzT01Pbtsfj8bt373Rdb7fblUoF61TwGCBoPjvzPZqe59FYMxop8S2bxxmG4XleUZRSqdRsNkVRpPG7Xz08HQAA/jba+FSpVDqdzqtXr1zX7fV6NDVje3vbMIxms1ksFjGbDZYL77/nhQ4D0alz3/cFQVBVlZpifEsipJEVhmFsbGwcHBzU6/Wtra1SqSTLMoImAMCCcBwny/LGxsavfvWrNE1d1z08PDw7O3vz5g1NpDQMA0ETlgvvv2dnvkczCAJRFOlw4jfGQYZhBEHQdb3RaIRh6Hleu90ul8u0HH9/1w4AAP8Lx3GFQmF7e9vzvKurq9vbW9/3T05OVFVdX18vl8uFQgHjgmCJEDSfHQqa1K1dkiSqO35jHJxXNKkrZxzHtBVdkiRUNAEAFodlWVmWy+Vyu93e29sbDodnZ2c3Nzc8z29tbdVqNY7jisUivvPDsiBoPi95ns8nA4VhWCgUSqWSqqrf+GWX9mhS3DRNM89zjuPonyBoAgAsDt1+NU1bX1/f29ubTCa+73e73YuLi+Pj4/X1dVEUdV3H0UxYFgTNZ4Q2aM4HnSdJIsvyfCflt2dNjuM4jhNF8f4uGQAAPoG+0pumubm56XnebDa7ubmZzWbHx8d03HNjY4Puz8ia8PAQNJ+RPM+TJAnDkIJmlmU0fFJRlG+vO9Jwc8qyeZ7Pa5m4rwEAPABJkhqNRpZl4/H4/Pzcdd2LiwuGYSqVyv7+PsdxdO5z2ZcJzw7ec88FLZqHYei6rud5NOVc07R7OQxE+TJN0yiKfN9P01SWZVmWeZ7Hd2gAgAcgCIJpmlmW7e7uvnz5krq4n5+fd7vd/f39PM+prokbMjwwBM1nJEkS13Uty3JdN01TmpZbKpW+vaJJtVLf96fT6WAwCMOwUqlUq1Vd1yVJwiZ0AIAHwDCMLMvNZvM3v/kNdbIbDAa9Xu+///u/0zRVVVUURZ7nkTXhISFoPhfzLEgzgajoaBjGfVU04zh2HOfm5ubw8NBxnJ2dHToPREXN+3sdAADw11GnuWq1+uLFC8/zzs/P6cv/Dz/8YJpms9lUFEVVVWRNeEgIms8ItfOdzWau6yZJQp0v7+UwEH11nk6n5+fnf/zjHyeTCXU4on3o9/oiAADg/0Tz3mq12vb29v7+vmVZw+Gw2+1ubGxsb2+rqkprTfj+Dw8GQfO5oIomHUh0XZemnJumWSgUvr2imWVZFEWWZV1dXf3000+3t7emaW5vb9fr9SRJ7u9FAADA38KyrCRJxWKx2Wy+fPnSsizLsk5OTnq93vHxMbU3VhQFQRMeDILmczEPmjR8krbyaJqm6/q9NCSiw0BxHAdB4Pt+FEVpmmZZdh/XDgAAn4s6axYKhf39fd/3R6PRxcXFZDL58ccfBUFQFIXmUqLJMTwMBM1nJE1Tz/Ns2w6CgL71apqmaRoa+QIArBJqq7m7u7u2tnZ1dfX+/Xvbtn/44QeO41qtVrvdpjkduPPDA8AXmueCzutQ0IzjmMqZNCIS9xoAgFVCRU1d19fX11+8ePGb3/xmfX3ddd3Ly8vDw8Nut0vtQaj/McBCoaL5jMzbG1GfC8MwRFFEygQAWD2UNU3T3NvbC8NwbW1tOBze3d29e/dO0zRBEGRZFgQBmzVh0RA0nwtq2O55nuM4SZLouk5Bc9nXBQAAC8EwjKIozWaTZdnBYHB0dDSdTi8vLzVNK5fLlUqFJmsga8JCIWg+F/M+mtREc17RXPZ1AQDAQsxPBXEct7u7++rVq263O5vNTk5O6vV6vV5XFKVcLiuKgqUtWBwEzWeBRkRGUeR5nud5eZ5TRVMQhPt6CrqjiaKoKIqmaTR/EhtAAQCWiOM4qll2Op3vv/8+juO3b98Oh8Ner1ev12mnPua3wUIhaD4LlDKp8VAQBNSq/R4rmpQyJUkqFAr1el0QhHK5rKqqIAjooAEAsCwMw9B883q9/vr1a9d1b29vLy4uLi8vf/75Z1VVC4WCYRgMw+BeDQuCoPkspGkahiGVM+M4pj5qhmFIknQvj09zzzRNq1aru7u7lUql1WpRZ2DcvAAAlotl2XK5zHGcZVkXFxfT6XQ8Hn/48ME0zVarVS6X7/HjAOAXEDRX37xVu+M4vu/PZwLd49I5y7L0mK1WixJtp9OhneZYkQEAWDpFUXie73Q6L1++nM1mR0dHg8Hg5OSk0+kYhtHpdLAABQuCoPksxHHsOA61as/zXJIkCpr3tXRO7d8LhYIgCMVikU6167qOoAkA8BiwLCsIwvr6+uvXr6Mosm37+Pj44uLizZs3NJSyWCwiaMIiIGg+CxQ0LcsKgmBtbU2W5UKhYJrm/e7R5HmezjDSP8Q9CwDg8WAYplAo7OzsBEFweXk5GAxs2+52u5qm0SF0VVUxmhLuHd5Pq49mAv0iaN7v0vkc85H7fWQAAPgWDMOIolgoFJrN5v7+/v7+vmmak8nk5OTk5OTk8vJyOp0mSbLsy4RVg4rmszBfOg/DkGVZOgxEwyHu6ynyP0vTNM9zjuOotxESJwDAI8HzvKqq1Wp1b29vOp16nnd8fHx1dXV8fFyr1ejTQRAE3LfhHiFoPgsUNGkmkCAIiqKoqipJEs/fzxuA+nSmaRpFEZ03kiSJ5puhlSYAwCNBHUJM09za2vI8bzKZ3N7e0n5N+lAolUqKolBHpGVfLKwIBM3Vl+d5FEWO47iuSxFQVVVKgfd1K6FCZhiGlmWNx+MoiorFYrFYpKIpzgMBADwSDMPIstxoNNI0vbu7u7y87Ha7p6enURRVKhU6hE4TN5Z9pbAi8E56FuI4dl3Xdd21tTVN0+at1O8xaMZxPJvN+v1+t9t1XXdra2t7e5tlWZZlETQBAB4Pnud1Xa/Vajs7OwcHB57nnZ6enp2ddbvdTqcjSVKj0UDQhPuCd9KzQEvnnucxDKNpmq7r93sTybLM9/3RaHR4ePif//mf4/H4d7/7HY2jlCQJE9UBAB4VhmEURWm327/5zW+SJJnNZmdnZ8fHx8VikeM4Xdc1TVv2NcKKQNBcfVmWzYMmy7J0DIjn+XvcgkMjLh3HGQwG3W739va2Xq8fHBwEQZCm6X09CwAA3BdBEKrV6v7+vmVZvV5vOByOx+PDw0PTNGkB/R738cNzhvfQsxBFkeu6nuepqkpfVe99OZvOAyVJEkVRGIZxHGdZluf5/T4LAADcC47j6AT61tbWwcEB7bC/vLwsFAp7e3u6rlerVV3X0VYTvhHeQCtufkzHdd0gCDiOMwxD1/V776AJAABPCE10M02z2WweHBy8evVKVdW7u7uTk5Nut3txcWHbNpak4NuhornKaNGcjgF9PHySKproXgEA8JxRt6Nisbi/vx+G4WQymUwms9nszZs3PM/Thn58XsA3QtBcZVmWhWFIHTSjKFpbW1MUhYImdt4AAADLsrqub25u5nl+eXnZ7/dvbm7ev3/Psmyn06nVajRbGEETvhrSxiqjoDmbzWzbjqKIpj7MgyZuHAAAzxzNpTRNs16v7+/vDwaDJEkuLi56vd7h4WGxWFxbW6vX62geAl8NQXOV5XkeBMFsNrMsi4KmqqqFQmERh4E+njY5/zOyLADAI8cwDM/zhmHs7Oy4rhuG4e3t7Wg0evfuHbWoK5VKmEsJXw1Bc5VlWTYPmnEccxynadrils5ZluV5XhAEQRB4nqdtPbg3AQA8clTXbDQaURSNx+Pj4+Obm5uLiwtFUarVaqvV4jhOFEXsuYKvgDfNKkvTlIKmbdtxHFNFcxGHgRiGoQlA1KRdVVVRFLF/HADgqRAEoVAoNJvN3d3dg4ODPM8nk8nx8XGz2dza2uI4rlwu07C3ZV8pPDEImquMBvZQ0EzTVFEURVE0TZMk6X6XzmnlRZblYrHYbrcVRanVarqui6KIuxIAwOPHsizdwzudzvfffx/H8R//+Me7u7vT09MPHz7wPC+KIs0uXvaVwhODoLnK5kvnrusyDCPLsqqqNOzhfmuN1I+tVCrt7u4mSeI4zs7OzsbGBo63AwA8FZQ1NzY2Xr9+7fv+1dXV+fn51dXVn/70J1EU5/v7kTXhiyAErLJ50PR9n5qiybLM8zzLsvceNBVFoTkTjUYjSRJqwEZPd49PBAAAC0JtNcvlsiAInucdHx9Pp9PxePzDDz8YhtFut2kSOpaq4IsgBKyyj4OmIAi6riuKsojGRrR0zvM8DTS73wcHAICHQVUDURQ3NzdfvXplWdaHDx+urq663e7Ozo5hGBzHFYtFBE34fAiaq4yCpmVZvu/T5ElFURZ9g6D55jgGBADwRLEsWyqVvv/++yRJPM8bDAb9fv/NmzeiKNKJT3Rihs+HoLnK6NS5ZVlBEFQqFQqa995Bcy7P8zzPsyybn0PHnQgA4MlhGMYwjL29vSiKLi4uDg8PHcfpdru6rm9sbFSrVWp1hLomfA4EzdVEgS+OY9/3aSyQJEmGYciyvKBbQ57naZrGcRxFUZZldD6RvvUibgIAPC2CIJim2Wg0Xrx4cX19fXV1NZ1Oe71eu92uVCq0gI4u7vA5EDRXE8W+KIp833ddN0kSRVEMw1jQ0jk9Hc1Vn06ncRybpmmaJq2wLK6GCgAAi8BxnKIolUpld3d3NpulaXp4eNjv94+Pj6vVqqIodNYTQRM+CUFzNdHuTMdxPM+bD5+k5LeI2EdPN5lMLi4uPnz44Lruzs7O7u4uddNE0AQAeFoYhuE4Ttf1zc3NJEmm0+nt7a3rur1eT9d1TdOKxaIsyyhqwichaK4m2sFtWZbrumma8jyv6/rigmaapq7r3t7e/vTTT//2b/82HA7/5V/+hVq4y7IsSdK9PyMAACyaoiitVkvTtOFweHp6enR0dHp6mmVZpVLZ3t4uFAo0eXjZlwmPGt4fqylNU8/zbNumdXNZliloLmiPZp7nSZLQwaObm5vb29vxeOx5XpIkdDYIAACenPm4oK2tre+++y4Mw7Ozs8Fg0O122+02y7LNZtM0zWVfJjxqCJqrKUkS13Vns5nneWmaiqI4r2gu7pwgnUDKsixN0yzL6BD6gp4LAAAeAMuyoii2Wq1/+Id/SJKEqglHR0eFQoHjOE3TEDThb0PQXE1U0bQsy/O8PM8paOq6LkkSGlIAAMDn4ziuXC7v7u5Op9Pz83PbtqfT6YcPHwqFQqPRKJfL1GZk2ZcJjxQyx2qiiia1aqegSTMhETQBAOCLMAyjqmqlUul0Oi9evNjc3GRZ9vr6utvtnp6eXl9fu66L9Sv4v6CiuZrodI5lWWEYchwny7KqqrIsi6KIE4IAAPBF6ERpvV5/+fKl4ziWZfX7/YuLi263WywW6f/lOA6fL/CXEDRXE1U0bduO45hOAlEfCpQzAQDgS9FOTVpA9zxvOByOx+PJZPL+/XtJknRdr1arsiwja8JfQtBcTbRH03GcNE3pGJAoikiZAADwdViW1XW91WoFQXB9fX17e3t7e3tycsIwTKvVarfbxWJRVVU0ToZfQNBcTbR0btt2mqaaphmGIUkSvmgCAMDXYRhGFEWaS7m/vz8cDuM47vf7vV7v6OhoY2Nje3ub2ifjswY+hqC5mmjp3HGcLMsepqLJMAzLshzHCYIgiiLP8yzLYtA5AMDKYBhGEIRCoUAL6L7vj0aj0Wj04cMHTdN4np9/1uDOD3MImisoy7I4jj3Po95G86C5uN98uvtomlatVre3tw3DoC6+OOQOALBKGIZRFKXZbMZxPBqNzs7OXNe9vLzkeb5SqdTrdVEUFzSCDp4oBM1Vk2UZDenxfT8IAkmSDMNYdObjOE5V1Vqt9v3336uq6rru5ubm1taWaZporgYAsDIYhqEz5rRWfnBwEEXRdDo9Pj7e3Nxst9uCINRqNSygwxyC5qpJ0zQMQ9/3Pc8Lw1BVVQqaC61osiyrKIooisVicXd3N8syURTnC+gLelIAAHh41DKvWCxubm6+fv3a9/0//OEPNzc3vV6v2WwqiqLruiAImIEOBO+DlUIzx+kYkO/7FPgKhcKi92jSXkyWZQVBUFV1Qc8CAACPAcMwkiTVarWXL196ntfv96fT6fX19du3bxVFWV9fp4omFtABQXPV5HkehqFt2zQTaG1tTVGUYrG46IomAAA8KzzPl0olhmHCMOz1eoPBYDqd/vTTT5qm7e7uGoYxPxK67CuFJUPQXCl5nsdxbFnWbDYLgmBtbU2W5XlFE7/wAABwL2jHFMuyNJfy7u7u8PBwMBicnJwcHR3R/1UqlbCADngHrJR50LQsKwiCPM8lSaKgiQPgAABwv6iu+f3336+trYVh+ObNm6urq//5n/+hMoeu6wiagHfASsnzPIoi27Zns1kYhvSN0zAMTdMEQVhcRTPP8zRN4zgOgsBxnCRJNE1TVRXngQAAVhiNC9re3s7z/Ozs7PLy0vM8aqvZarUqlQrt3cenwHOGoLlS5kGT0p4gCIqiaJpGI2gX97xZlvm+P51OLy8vDw8PHcfZ2dnZ3d2t1Wq6rouiuLinBgCAZZm3cK/X6y9evBgOh71ebzgcnpycdLtd2sRZLBYlSVr2lcLSIGiuGlo6p5lAkiQpikKNhxY6pCfLsjAMx+Px8fHxf/3Xf41GI8dxVFVVVVWWZQRNAIBVxbKsLMvlcnlnZ2c6nfq+f3V1dXNz0+12y+UyfQzhkMBzhqC5Uj6uaNL8BlVVH2DxmtoqBUEwm836/f5gMNjZ2XFdN0mSPM8X+tQAALBE1MZIUZROpxMEwXQ6PT09DcPw5OSEPoPK5TLNCsIC+vOEoLlSKPBZluW6LsuytFHyAfZi53lO2zSDIKDmSp7nxXGcpimCJgDAaqO2ms1mk+O40Wj0/v37Xq/X6/WSJKlWq7u7u6VSCQdSny0EzVVDFU3XdTmOo2NAD9MyN8uyLMvSNE3+LMsyCqAP8OwAALBE8wX0ra2tX/3qV1mWHR0d3d7e0mhKnufr9bphGGjh/gwhaK6U+dK553m6ruu6rmnag3WXmGdKhEsAgOdmXtf83e9+l2XZZDIZDAa9Xq9YLHIcR5s10cL9GULQXB1UTQyCwHXdMAxLpZJhGKqq4hskAAA8AJ7ny+XyixcvZrNZr9dzXXcymXz48ME0zY2NDcMwTNNcaK89eIQQNFcE7c70/yxJEkmSEDQBAODBsCxLHzqbm5sHBwee511dXfX7/aOjo06nY5omy7KFQgGfSs8KgubqiKLIdV3HcWgmkCzLpmk+5NI5AAA8c9TnpFarvXr1yvd9z/POz88vLi663a5pmrIsq6qKBfRnBRFkRWRZFkWRZVm2bYdhyDCMqqqFQgEVTQAAeBjUsJmmnO/t7fm+PxgMBoPBdDo9OjrSNK1YLJbLZZ7nUQF5PvBfenUEQUBBM45jjuM0TXvIiibLsjzPi6KoqirNIqLvtfjaCgDw3NAIyjAM+/3+9fV1v98/Pz+XJGljY6Ner/M8r2kauh09EwiaKyLP8zAMaSZQHMfURLNQKDxMeyOaZqvreqPR+O677zY2Nra3t0ulkizLuJUAADw3NJey0Wjs7+8PBoMoigaDAS2gb2xssCwriiLmUj4TCJorIs9zGsxjWVYcx4IgqKpqmubDLJ3TBvD19fVXr14piuJ5XqvV6nQ6hmEIgrDoZwcAgEeF1tANw9jZ2fF9PwxD27bH4/GHDx80TRNFsVKpYC7lM4GguSLyPPd9nyqaaZrSnHFd12VZfpigSWvlmqY1Go00TWVZlmVZEATsEAUAeJ4URWm32wzDjMfjs7Oz09PTs7MzQRCq1erOzo4kSYIgYNVr5SForogsy2iPpu/7LMsqiqIoiiiKPM8/wFdGegpqycuybJ7ntNcbdxAAgGeLPozK5fL29varV6/SNB0Oh7SAvrm5mWVZpVLRdX3ZlwmLhaC5OmiPpu/7VFlUVZUKig+zNkEnDWmzJk0GoqWTB3hqAAB4hFiWlSSpUCh0Op1Xr15R//bBYHByctJqtSRJmnc7WvaVwgIhaK4I2qNp23YQBNSqXZKkB162nsdK5EsAAKCPA1EUq9Xq/v6+ZVm3t7eO49ze3v7pT38SRbFUKhUKBWyyWm0Imqsgz/P50vk8aCqK8mDlTLoGuow0TecFzkU8O/Nn9/7IAABw73ieLxaLW1tbtm1fXl4Oh0PLsn766Sdd17e3t2u1mq7r6IW3whA0V8THFc1yuUwDGB5sPYIGYNIFTCaTIAjoNJIkSfe7U5NhGEEQBEFAk04AgCeBYRhJkorFYrvdfvny5WQyef/+/fX19enp6eHhoWmaW1tb1MV92VcKC4H/rqvg44pmFEWyLBuG8TDnzQk9O50r/Pnnn8fjMXXlLZVKqqre1+2DqqSaplG9lo4rImsCADxy8wX07777Lo5jx3Gurq6urq5++OEHnucVRTEM4yGX4OAhIWg+eVmWUTXR9/0gCLIsow6aiqI8WEVzPgDz6urqzZs3FxcXGxsbrVarXC7TmaT7eiJRFOmRq9UqNWPDjQkA4PHjOM4w43DcBQAAIABJREFUjE6nE4bh5eXl6elpGIa9Xk+WZfqwKJVK1Ldk2VcK9wxB88mjaqLjOI7jhGHIsqyu6/Ol84fJYfOl8+l0en19fXR01O/3e72eqqrUYum+nkhVVeqRwfM8raHf1yMDAMDiUFGzUCg0m80XL15cX1+fnZ2Nx+Nut7u3t1epVBiGKZfLKB+sHgTNp40WzX3fn81mnuclScLzvGEYFDQf8hxfmqZRFPm+P51OB4MBx3F3d3fzzZTf8sj0GpMkieNYUZQkSTY2NtbX1wuFgqqq9/cKAABgURiG4TiO2mru7u7OZrMkSUajUb/f73a75XJZkiRFUXiexwn0FYOg+eSlaep53nQ6pZlAdOT84Q8DfRwHsywzTbNWq9FW0W+saMZxTNM1B4PBdDqdTCae59Gz3N8rAACAxaKsqWlaq9WKomg6nV5cXAyHw5OTExplR3ETC+grBkHzaaM1a9d1x+Ox67ppmgqCYJpmoVCg9kZLuSpFUba2tl6/ft1qtSjyfsujUb32/Pz8zZs3/X7//i4TAAAeFC2g12o1nuepc7vruv1+P8/z9fX1drutaRqmyq0YBM0njyqaVOfLskwUxYffo/kLoiiur6/v7e3t7+/TqZ1veTTbtofDIcdxV1dXw+Hw/i4TAAAeGsdxqqpyHLe9vf3dd9+5rnt4eNjv94+Pj9vttiRJDzY8GR4GgubTlud5mqau606nU9/38zynoKnr+hJXH1iWVVW1XC5vbGxsbGx8Y9CczWZra2u3t7eYVAYAsAIYhuF5vl6v//rXv06SZDab9fv9s7Mz6nZULBYfeOAILBSC5pOXJAlVNIMgoK3WmqbN20wu5ZJovi0VVovFoq7r3/iAnufRAXbcdwAAVgDLsuVyeX9/3/O8Xq9nWdZ4PP7w4YNpmpubm7quU2s83PNXAILmk0cVzdlsFkWRJEmapsmyvJSUOb8jsCzLsizHcTzPUx+ib3lYOrpO325x0wEAWAEMwyiKUqlUNjc3X7165TjO5eXl9fX18fHxzs6OqqobGxuFQgHjglYA/hM+bR8vnVP3n6UsmtPMHo7jJElSVZXC7jwdPuSVAADA40er5xQoX7165Xme4zjn5+eXl5fv37+nJSwsoK8GBM0nb97eKE1T6hDx8OVMGkGu6/rGxsbBwUGtVtva2sKYBwAA+L/QB4dpmru7u77v397eTiYTy7J+/vlnSZKofYogCBzH4XPkSUPQfNrm7Y2m0+na2pqmaRQ0P17IfgAsy8qyXCwWt7a2oihyHGdnZ6dWq93joHMAAFgxDMOoqtpqteI4vry8vLm5oYomy7KtVqvRaCiK8pA9oWEREAKetizL4jj2PM+2bV3XNU0zTVMUxYevaIqiaBhGo9HgOC4Mw0qlUiqVHng6EQAAPC08z5umubGxsbe3NxgMfN9///79+fl5t9ut1WqCIFDTzWVfJnw9/Md7wrIso8GPrus6jkNB0zCMhz+dPd9tQ8fe0zRVFIXaoWF7DQAA/G2apu3u7gZB4Pv+1dXVbDZ79+4dtU+hE+jLvkD4egiaTxWNfKTx4vTLybKsYRjLCppU1BQEgbpm0gUgZQIAwCdJktRqtfI8Hw6H7969u7y8vLy8lGW5Wq22Wi3aEob1sScKQfOpyvOcdkPatu37Ps0EMk3TMIwl9h5DByIAAPhStBpWLpe3t7d//etfi6J4d3fX7/e73W6z2RQEYX19XdM0fL48RQiaT1We53EcO44zm82CIFhbW5NluVAoLKWimec5VVjTNI3jOM9z6qCJ5pcAAPBJLMsKgmAYRrvdpnFBdMj19PS0Xq+rqipJkiRJGE35FCFoPlW0bk5B0/d9CppU0VxK0IzjOAiC2Wx2d3cXx3GxWCyXy5qmSZKE9Q4AAPjbaKTc+vr6wcGB67o3Nzee59FKuqIopVLJMAxFUXAw6MnBf7CnipbObdueVzQlSSoUCqZpPvzSOV2MZVmXl5cfPnyg9kZ7e3ssy1Jd8yEvBgAAniIadC6Kom3bZ2dnk8lkPB4fHR2pqrq5uVkulzmOQwv3JwdB86ma79GczWZhGLIsqyiKYRiapj180KQuS7ZtX19fv3v3bjqd0hxb0zRxWhAAAD4HFTVFUWw2my9fvqTRyuPxuNfrHR4e6rpOPZsRNJ8WBM2nah40LcuK41gQBEVRNE2jHulLWTp3Xffu7q7X6w2Hw/X19f39/SiKsix7yCsBAICni5pAVyqVV69e0ardaDS6urp68+aNJEm6rtfr9WVfI3wZBM2nal5EtG07TVNZllVVVRTl4bu1z0euU/C9u7sbDoe0czRJkjzPH/hiAADgSdM0rdPpBEHQ7/evrq5Go9HZ2Zmu681mc3Nzk84Goa75VGCs01OV53kYhtTeiGEYwzColsmy7FJ+/eanzpMkiaIoSZIsy+g0+sNfDAAAPF08zxuGUa/X9/b2Xr58Wa1Wbds+PT09Pj7u9Xrj8Zjamyz7MuGzoKL5QOYNgOgPHMd9YyKctzdyHIdl2UKhoGkajuMBAMBTx3GcJEnFYnFnZ4cOvP7888+3t7fdbrdSqaytrRmGQZ93qGs+fsglD4S6EcVxHMdxlmWyLMuy/C2bKed7NF3XpaCp6zqCJgAAPHU01pjWyn3fn06n/X7/7u7u9PRUFEVVVRuNhiAImHL8JCCXPBDq/mPbtuu6WZYVCoVqtUrDwb/u9yTLMlo6d13XNE3TNGVZZll2KYdv0jTN/oyWM6h8S4vpaZrey4Pnf/bxI+MuAwCwkjiOK5VKnU5nOBz2ej1qruk4Di2pi6K4lL7R8KUQNB+I4zgXFxfX19fj8ThN03a7vba2Vq1Wqf3sF/2eUNiK4zgMQ9d1Pc8zDIM6Pvi+b1nWwx8Gotqq53lRFFEupCHstIX0G3fSUJgOgoA25SRJEgSB67qO49D8oft7HQAA8IjkeS7LcqlUajQat7e34/H47u6u2+3u7OxQT020an788CH9ELIsG41Gb968oV0mSZJ8//33tE2zUqlQXfOLHjBJkjAMPc/zfT8IAjp54zjO7e1tHMcPHzTjOJ5Op4PBYDqdUtakVkfX19dxHGua9i0Pbtv2YDAYjUae5yVJ4vv+ZDK5vb3lOM62bQRNAIAVFoZhHMelUml9ff3q6urm5qbb7Zqmmee5qqqqqn7FgYdPlj9QJb1H+JBeOFrknU6nJycnb9++vbm5oXGRjUajUChQT6IvfcA4jn3fnwdNatt+cXHBMIxpmg//G0LHkobD4fX1teu6YRiORqPT09M0TW9vb2VZ/pYH9zxvMpmcn59Pp9MwDG3bvrq6kiRpMplomobvsgAAKyxNU9/3Xdelj78gCC4uLnieLxQKrVbrS+fhzTdf/Y2/wzAMwzDLauGyehA0F4saTNJmyslkYtv22tqaKIphGN7e3tZqtUqlUigUvqgs9/HuzDAMgyAYDod5no9Go263u5TuYvNLuru7m0wmvu9fXFzEcdzr9WRZFgThWx6cVuEnk0m/33dddzgcUl5XVXUpTUMBAODB0I4p3/fH4/FoNIrjeDweMwzTbDa3t7cNw6AKy+d80NAnchzHf3uYCMdxoigKgoCseS8QNBeLNlPStzHP8+gYkGmaHMfd3d3d3t5ubm5+0fEd+jYWBIFt247jRFFERb7hcEi/Ekv8rZif0cnz/Ozs7PLycv7V8Fsedn4GiB7Z9/27uzv8/gMAPB/zVs1pmtI8vLOzs6Ojo2KxOJ+9/JmPQOuBf+OUKs/ztOOLNoDis+YbIWguEH0Psyzr5ubGsixd1zudDq2VB0EwHo9vb28dx/nSQ9kMw4iiWCgUtre3f//735fL5SiKPv5/F/BSPstf3fVyL9ezuEcGAIDH7xefAoIgbG9vt1otwzA+c92cVt5o8xVNG6LPX1EUZVmmGesf9zmh/krFYrFWq9XrdU3TsID2dRA0F4uC5sXFhWVZxWJRVVVqM3t2dnZ9fT0cDh3HoTmNnxmbGIbhOE6W5XK5vL+/ryjKwcHBN/YPAgAAeEJYljVNs1QqlctlSZI+JwJSOxTLss7Ozn766afj4+Pr6+soinRdL5VKNPSEZVk6aGtZVpZl5XK51Wr9/d//PbW+RtD8OgiaC0QVzel0SkGT3sfFYjHLsru7uyAIJpMJbdykGeWfmTVZlhVFUdd1hmE0TWu325jEBQAAzwo1bNc07fMjIMuygiCoqqrr+tra2mQycV03SRJaeaeNnlEUUWnTtu3RaDSdTgVBqFartJCIgwFfAUFzsZIkmc1m5+fnDMPs7e212+1SqRRFUa/XW1tbc113NBqNx2M6Pf35R4I4jqPJ5qqq0s7FBb8OAACAR4TW93ie/8yKJo21LJVKL168kCQpCAI6vVqr1XZ2dl68eLG5uanrepqmQRBYltXv93/66ac3b96oqlqv16lZdalUQtD8UgiaCzQv1A8GA8MwTNNsNBrlctnzvEKhIMtyHMeTyWQwGHzRpHJqu8CyLM/zdEpm8S8FAADgcaFlwM88G0qLgTzPy7IsimK/33///n2appVKpdls7uzsvHz5slgs0lKk67q9Xu/6+tqyrNvb236/X6vVSqXSZx5vh48haC4KdbukGTa2bdPuzEqlQkfOaWeJbduz2ezm5qZWq9Vqtc9/cPqlwmkYAACAz0RFUFoSpNZ7NF5OFEVFUVRVpcPmWZZJkmRZFsXKJEkcx3EcJwxDVHa+AirAi5JlGQ2EpG6XeZ6zLMtxHLXpkSSJzspRe8jpdJokybIvGQAAANZozZAyKH1wZ1mGlPl1UNFcCGqfOZvNhsOhZVnzzZqDwUCSJOqpybJskiSj0UhRlMlkQoO8UaQEAABYFsqUNAwlDMMkSXiep81vS5mHsgIQNBciz/MoikajUb/fn81mPM+naTocDmnYQBiGk8kkSZIoiuhEG40Iz7IMfcgBAAAexnxWUBiGvu/Lskwf37PZ7O7uzrbtJEkURVlfX19fX8fQ46+DoLkocRzf3d31+33LsiRJ4jhuNptRNT6OYxrbOh/kPZlMLMsyDEOW5S8aRwkAAABfIc9zqvtcXFzQOXTDMCho0hmgIAjq9Xqn02k2m5VKRVVVHDn/Csg0CzGvaF5fX7uuq+u6pml0kI1lWdrqQaMIGIaZTwnSdf2LmhwBAADA18myzHEcy7Km0+n5+XmxWJQkiYYD0ckKRVF++9vfvn79utPpoInmV0OmuX9Uiqd+7KPRiGXZjY2NQqEgSdI8RCqKIkkSje2m7ZvX19fFYlHXdUVRlv0KAAAAVhydpvB9n1rEzGYzURRpj2Ycx7IsdzqdjY2NcrlMTTSxse3rIGjeM0qZNMPK87wkSWq12t/93d/VajWe5z9+m/q+ryiK7/vD4dD3/aurq2q1SpF0qa8AAABg9TEMo6oqTTNvNBobGxuqqlL6dBzHdd04jo+Pj/M85ziOPs1piPSyL/yJwc/rns3fo7PZLAgCjuOq1eqrV6/a7fYvDvq4rsvz/HQ6pWB6dXXVaDSCIMDZcwAAgEVjWVZV1Y2NjYODg1evXu3t7RUKhTzPfd8fj8eXl5dv37598+ZNGIb04U7tNhE0vxR+XveM2mcOh8Obm5s4jnVdL5fL1Wq1Uqn8Ym+HoiiWZbVarclkcnl52e/3B4MBzV3lOA4bQQAAABaHYRhBEDRNo+FAm5ubpVKJTghVKhVJkkajUbfbtSyr2+0KglCpVNbX15d91U8P0sx9otFVs9ns7Ozs7OwsSZJCoWCaJsMwv+j1Sn+WJKlcLheLxTiOb25ubm5uptOp7/tpmi71dQAAADxHlD5N06zX61tbW/v7+5IknZ2dHR0dDYfDOI6XfYFPDyqa9yZJEqq3n56eHh0ddbvdMAwlSRoOh0dHR1EUURculmXTNHUcZzQaXV1dDYfD6XRq2/Z0Or24uHj37p0kSe12u1qtoqcmAADAA+M4TpIkTdMKhUKpVLq+vp5Op6PRyPO8LMuWfXVPD4LmvYmiaDAYHB8f//zzz2/fvj09PU2SRBTF2Ww2Go1+9atf/eM//qMkSaIoxnF8fX39/v37o6Oj4+Pj8/Pzu7s73/dPT0///d//3bKsf/3XfzVNkyZfLftlAQAAPC/MR7Isy7IsTVNMofw6CJr3hoZWOY7jeR7tGuZ5nuO4OI5Ho9FkMqG+XPQ3gyCwbduyLN/3WZYtl8ulUonjOKp00tcmvKEBAADuHX28/tUP2TzP522PHMeh4UCCICiKIggClhm/AoLmvREEoVQq7e7u6rq+vb1NI85ZlqU3aLvdLpfLVKHkeb5arR4cHJRKpYODA8/zaFMmbQ2p1WrNZlMQBJwHAgAAuF/UKTNJkjRN0zSdx03659QHxrbt6+tr2gjnum6lUmk0GqZp4sj5V8CP7N6Iori+vl4qlfb395Mkme/koNq7IAg0iJIiKfWApXf5L/Z88DwvyzK+OQEAANwjqlYmSRIEQRRFcRzTp3CSJHEcR1EUhmEURa7rDofDy8vL09PTXq9XKBR2dnY6nU6xWMR+tq+AoHlvGIbhef5zvu5Q7hQE4UGuCwAA4LlL05RC5PX1da/XOz4+ph4vtm2fn5+vra0NBgNFUZIkCcPQdd3JZJIkyebmZrPZfPXq1YsXL6rVKj64vwKDjYAAAJ+DVtbmxwKyLJuvV3Achwl1AI/ZvFT59u3bn3/++ezs7O7uLo5jSZJ0Xdd1XVVVjuPyP+M4ThRFVVU3NzdfvnxJS+eKoqCo+aVQ0QQA+LT5+QDbtmezmWVZURTRCDvaCUN7Y5A1AR4thmFYluV5XlXVer1eqVRoFB/7Z/T7S+uTiqLQvJVWq9Vut03TxJa2r4OKJgDAp6Vp6nneYDC4vLw8OTnp9Xq2bTMMs76+/k//9E+vX78uFotoSQbwaKVpGscxFTXH43EYhn+1KSYtTbAsK4qipmm6rhuGQQ0HkTK/DiqaAACfhfZ42bZ9c3NzdHR0c3MThmGj0Wi327u7u+jkDPCY0YIDlTNbrdbf/oWluEnjoDmOw2LFt0DQBAD4NIZhRFE0TbNWq9Xr9dvbW8uyptPpdDqN45ia5uKjCOAxo/VxtCh6YPhxAwB8GsMwkiSVy2WWZamTs+d5s9mMltioJRl63wIA/AKCJgDAp9E6miRJqqpqmqYoiqIouq4riiLLMsqZAAB/FYImAMDnojRJx8/zPDcMwzAMURSzLIvjmP7O/Bzr/H+RQQHg2ULQBAD4XHmep2kaBAFNQNY0rVAoxHE8HA4nk0kURTTXThAEKnyqqkojkpd94QAAy4GgCQDwBdI0pakhvu/LsizL8nA4fPPmjWVZ4/HYcZwoinRdbzQanU6HxoogaALAs4WgCQDwBShojkYj27bp+Op0OvU8bzwe393d0Z9lWb65uZlOp2tra6Zpapo27wUNAPCsIGgCAHwuWjr3PG80GtEoZI7jNE0rFouFQmFra8t13el0Oh6Px+Pxu3fvZFne2NgwTVOSJJ7nkTUB4LlB0AQA+Fx06IfS5Gg0YhjGMAye52u1WqvVKpVKcRyPx+M3b978x3/8x8nJiWmaBwcH9Xqd2j4jaALAc4OgCQDwWWgykOd5juO4rru2tlYqlVqtVqfT6XQ6jUajUChkWVYoFO7u7gRBcBxnPB5PJhPbtmk357JfAQDAQ0PQBAD4tDzPkyTxfd+2bdd1oyhSFGV7e/v7778/ODjY2trSdZ0O/UiSVK1WNU1jGMb3/dlsZllWoVDI83zZLwIA4KEhaAIAfBoFTdd1LcsKgoDjuHK5vL29vb+/32g0TNMUBIFWxhmGoSlBeZ5nWZamaZZlSJkA8DwhaAIAfFqe53Ec27Y9nU7DMJRluVqtdjqdra0tSpk0fzL7CHVupzHomE4JAM8TgiYAwKfleR5FEQXNOI41TatUKuvr65VKZX6cnKqeYRj6vk+DggRBoN2ZHMct+xUAACwBgiYAwKfNK5qWZWVZZhhGsVhUVXW+Yk5/JwzD6XQ6nU6DIGAYRpZlwzBo+yaOnAPAM4TVHACAT5tXNGezWZ7nhUKhUCiIovjx38myzPO84XB4d3cXhiHP87quFwoFBE0AeLYQNAEAPm1e0ZzNZtTD6C+DZpqmlmWdn5/f3NxkWVYqlSqVimEYsiyjWzsAPE9YOgcA+DQKmo7jWJaV57mqqqqq8jw/P06epqnv+3d3dycnJ9fX16IoViqVRqNhGIYoijgMBADPE4ImAMCn0UGfIAgcx+E4Lk1T+idpmjIMQwPQb29vLy4uTk9Pp9NpoVDY2dnpdDq6ruMkEAA8WwiaAACfheZPBkGQ57llWZZlua7reR7P80EQ9Pv9brf74cOHi4sLlmWbzebr16+3t7d1XV/2hQMALA2CJgDAp1Ebdk3TTNP0PC8IgvF43O/3RVHkOC4Mw9PT0+PjY9qdWalUtre3X7x40Wg0MHkSAJ4zBvMqAAA+KY7jwWDw888/v3///ubmxrZtnucLhYKmaTQEyPM83/cZhpEkqd1uv379em9vr1Ao8DyPDZoA8GwhaAIAfFqWZUEQTKfTm5ub4+Pjw8PD6+try7I8z1tbW+N53jCMSqWyubn58uXLTqdTrVYNw6Dp5zhvDgDPFpbOAQA+jWVZSZLK5TJNmxQEoVKpTCYTx3EoaBYKhUql0m63d3Z21tfX0dIIAAAVTQCAz5XneZZlSZK4ruu6ru/7YRjSqEmWZUVRlCRJVVXDMCRJwnxzAAAETQAAAABYFHzhBgAAAICFQNAEAAAAgIVA0AQAAACAhUDQBAAAAICFQNAEAAAAgIVA0AQAAACAhUDQBAAAAICFQNAEAAAAgIVA0AQAAACAhUDQBAAAAICFQNAEAAAAgIVA0AQAAACAhUDQBAAAAICFQNAEAAAAgIVA0AQAAACAhUDQBAAAAICFQNAEAAAAgIVA0AQAAACAhUDQBAAAAICFQNAEAAAAgIVA0AQAAACAhUDQBAAAAICFQNAEAAAAgIVA0AQAAACAhUDQBAAAAICFQNAEAAAAgIVA0AQAAACAhUDQBAAAAICFQNAEAAAAgIVA0AQAAACAhUDQBAAAAICFQNAEAAAAgIVA0AQAAACAhUDQBAAAAICFQNAEAAAAgIVA0AQAAACAhUDQBAAAAICFQNAEAAAAgIVA0AQAAACAhUDQBAAAAICFQNAEAAAAgIVA0AQAAACAhUDQBAAAAICFQNAEAAAAgIVA0AQAAACAhUDQBAAAAICFQNAEAAAAgIVA0AQAAACAhUDQBAAAAICFQNAEAAAAgIVA0AQAAACAhUDQBAAAAICFQNAEAAAAgIVA0AQAAACAhUDQBAAAAICFQNAEAAAAgIVA0AQAAACAhUDQBAAAAICFQNAEAAAAgIVA0AQAAACAhUDQBAAAAICFQNAEAAAAgIVA0AQAAACAheCXfQEAAAB/RZ7n8z8zDLPUawGAr4SgCQAAj0scx2EYxnGcJEmSJJIkaZomSdKyrwsAvhiCJgAAPC5RFLmu67puEARhGJqmyXEcgibAU4SgCQAAy5FlWZqmSZJEfxbHcRzHlmXNZjPP81iWZVl2bW3NNM1lXywAfA0ETQAAWI40TalyOZlMxuPxZDKZ/dl0Os2yrNFo1Ot1XdeTJFn2xQLA10DQBACA5aCgOR6PLy8vz8/PLy8vr6+v+/3+dDqdzWaiKP7617/meb5Wq8VxvOyLBYCvgfZGAACwNLQ4zvO8KIo8z0dRZFmW67pxHDMMo6pqpVIxTVMUxWVfKQB8DVQ0AQBgORiGYRiG4zie5yVJEgQhSRLLsnzfT9OU4zhN06rVaqFQQNAEeKIQNAEAYDkYhhEEQZZlVVU1TZNlmWGYKIpoRybP87qul8tlVDQBni4ETQAAWA6O4xRF4TguDMMgCEzTlCRpXuYURVHTtFKppOu6IAjLvlgA+BoImgAAsBwUNBVFoaBpGAY1y2RZlhpn6rpOQZOaHAHAk4OgCQDwTDmOc3FxcXFxkWUZwzCaprXb7Xa7zfMP99FAsyWjKLJtezabBUGQ57koioZhlMtlTdN4nmdZFiMoAZ4oBE0AgGfKtu2ffvrp//2//5ckCcuyGxsb//zP/7yxsfGQQZOEYTibzSaTie/7eZ7LslwsFiuViqZpHMfRYvoDXxIA3AsETQCAZyoIgqurqzdv3kRRxHHc5ubm/v5+mqYPfyVhGE6n03nQlCTpF0Hz4S8JAO4Fdr0AAMCSBUEwm83G4/E8aBYKhXK5rKoqUibAk4agCQAAS0YVzfF47HneL4ImjgEBPGlYOgcAWKY8z6MoCoIgDMMkSeI4TtM0y7I8z3me5zhOVVVVVRVFmR+dWSV5nud57nkejTv3PC/LMkmSSqVSpVKhVx2GYfQR+vmsra1R901RFAVBePh9pQDwOfCbCQCwNHmer62t+b4/nU4ty/I8z/M8ilN0JkaSpGq1urGxMW8wuexLvk95nmdZlmWZ7/sUNOnU+fwwkKqqFDRt27Zt27Is27ajKKIBlbVarVarmaapqiqCJsDjhN9MAICHlqZpkiRJklCtbjabzWYzGr3o+77neb7vR1HE8zzP87PZLEmSPM8VRVFVleO4ZV/+vcnzPI7jOI5d16UQOR8XpKqqLMu+79/c3LiuO5lMptPpdDqlFkgUNCeTiW3btVqtUqmUSiX6cWGpHeBRQdAEAHhonudZljUej29ubm5vbylazRfK0zT1PM9xHIpWlUrl4uJic3Nzd3d3Z2dnlc7HJEniui5VK6MoolbtJE3T2Ww2HA4HgwFlUMdxgiCglEmNP3u9XrFY7HQ6+/v7Ozs7xWKxVCphWCXAo4KgCQDw0DzPu7u7Ozs7e/fu3fv374vFYqPRWF9fLxQKhmGEYZjnueu6Z2dnx8fHuq43m83r62uWZZvNpqqqeZ6vRtZM09R13dFoZFkW7RZgWZaqklmWWZb1008//eEPf5hMJrSjgLau0n4DGobO8/zLly9936elc12jrx0yAAAgAElEQVTXETQBHhUETQCABxJFERXnTk9PT09Pr6+vbdvWdX19fb3ZbNbrdV3XdV2n0z+SJE0mk7OzM8/zBoMBx3E7Ozvj8Vj8s2W/mnuQJInjOHd3d7Zt02o4TZ70PO/8/NxxHNu2VVUVBIFhmDzPkyRJ09SyrOl0ats2bVq9vr4+PDykHQXFYlGSJKqJLvvFAcAagiYAwMMJguDm5ub8/Pz9+/fv3r2zbbvRaGxubm5vb+/s7NTrdUEQBEGI47jRaJTL5bu7u16vN5lMZrPZ2tra7e3taDRSVdU0zdUImmmaOo4zHA7nQVMQBEmSHMfpdrumaUqS1Ol0NE2jUmUQBL7vX1xcdLtd13WpujmdTrvdrud5hmFsbW0ZhiEIAoImwCOBoAkAsHDzJj79fv/t27fv3r179+5dlmW1Wo2y5ubmZq1W+/hfURTl7du3mqbRwnGSJHQUZn4WewXMK5qWZVHQ5HlelmX6WfE8X6lUOp1OtVqlnpqe57muqygKbWANwzAMQ9d1gyBwHOfFixfT6bRcLlNgXfaLA4A1BE0AgIdAx8wtyzo7O3vz5s319bXrupqmSZJkmqaiKH/ZnYeyKXX/me9KXLEOR0mS2LY9HA5pjybLsqIoqqrabre3traazWalUimXy7SdgGq9tJUzDENaNL+5uaE/R1Fk2/ZgMCgWiwzDUANOAFg6BE0AgIVL05TaGJ2fn//444++7ydJYhiGLMuGYSiK8lebFuV5Pm/evnop8+Ol83lFUxAERVG2trZ+//vfHxwcUCdROh5E2zSzLGNZlvo95Xk+Go2CIEjTNI5jy7KGw+EqVXwBVgCCJgDAwjEMw7Isx3GiKCqKIssyx3GtVmtjY6NcLmua9vFSb5qmaZr6fxbHcZ7n9O/SiKAVaE5OMZHKkPPDQIIglMvlra2tTqdTr9er1Sq1fPpFvC4WixsbG7PZrN/v04+CAmgcx77vh2GYpunyXhkA/C9P/m4FAPD4UdceRVHK5XKr1eI4TpblVqvVbrfX19fp/Mr8LydJQpsOHcdxXZeSE8uysizTFJwV2IBIxVoa+TMPmqZpbmxsHBwcdDqdQqFAh83/sogrSVK5XK7X64ZhfFwJpromddl88BcEAH8dgiYAwMJR4x5VVWu12u7uLtUmG41Gs9ksFouUqGjKObWWpJ2Ls9mMKpo8z0uSpCiKpmn/14ZO2r9IGWu+p/Nvs22bUiz1P0+SxPd9y7I+syJIEZDneTos/0U/EAqFvu/btj2dTmnEuSiK1Wp1d3e30Wj8IkR+TBRF0zQrlYqmaR//nb/c0goAS4egCQCwcNRtxzCMFy9eSJJE6+CmadbrdZ7n4zgOgoDGMM5ms+l0OplM+v3+xcVFFEWUSovFoqZpoij+5VIy5bbLy8uLiwvbtj8/aQ0Gg16vRxtGWZYdj8cfPnyg2Y+f869zHMeybLVa7XQ6jUbji34gQRDMIyZtuKTMqut6tVqlcub/9e9Saqdn//if0+aEv/rzAYBlQdAEAFi4/9/enXW1cW55A0elsVQqzbMAMQlsp89qJycrd2f16ov+tP0V+qK7L/s4g53YDgiD0DyWSqWaB9V7sd/UIjbBTEIM/99FVmIMlBRE/fU8z96bzmjG4/Farba5uemlolAoFAwGaR1xPB53Op1utzscDsfj8XA47PV6lmVRwVAqlaJekn8VNDudzps3b/r9Pq1QXuWqZFlut9u0mkijww8PD2VZvsoZUGpFFAwGa7Uay7LXDZqGYcxmM+rc5DgOzToKBoM8z2ez2csbhdJT51UInf9zOtOJJpoADweCJsBq0Bk127bpFJo34nnV1wXLQsmMNtBVVVVVlXbGPaqqapoWCoUCgcBisTBNkxKYt1McjUb/arlusVjMZrNWq9VqtWzbtm37KpdEhfBUbESDMQeDga7rV/k5pFZEoVCI53lFUa77bOi6Pp1OBUGgmBsMBukEKnUyCoVCl1wDbZHTk+P9IT29XqHVda8HAJYEQRNgNRaLhWEYdFOn5RlaH8Ku3xPm/kEUxX6/3+/3h8PhaDRiGIba+iSTyc3NTWoYSSc1Kc8lEgk6kvhX8Ys6nAuCMBgMrh40qRzH+8uGYUiSRG0pv/q5Pp8vHA5HIhFqnH7NZ2JN13U6IaBp2traWiQSSSaT9Bi/XKr8DBWYm6bp7bnT9dAZg6dRLAXwZCBoAqwALWcqiiKKIhUgk0AggKD5JNG5SeqmaVnWaDRqNptnZ2edTqfT6XAcl0qlCoVCsVisVCqu6wqC4M34Ph80L1mro0U+27Yty7pi0PxsXZCukPpZfvVz6aCkbds3K77RNI1WNDVNc103HA5T0IzFYl8dIElBkyKy12GUYZhwOOy1dr/u9QDAkiBoAtw3KoyVJOno6IhqL/L5fC6Xy+Vyl+8YwuNFO+PT6ZSG2czn8/l8btv2xsbG3t4ex3EcxyUSiVwul06naW7QeDxWFGWxWITD4a+uaAYCgVqt9h//8R/fffcdla5f5apms9nx8XG9XqczmvF4fHd3d3d39ypBjY5UBgKBarVaqVSu+4TQiqYXNGlFk+ZMfjXmWpalqiqVzFP/dhpcSSdZaUL6da8HAJYEQRPgvi0WC5q8V6/X//d//zedTu/t7VFxcTqdXvXVwVJomjaZTM7Ozt6/f//+/Xs6kpjP52u12suXL+lUIhUGUbkPTQA/HzSz2ewlK5qBQGB/f79cLtOByysuMbbb7f/6r/8aDAaWZfn9/mKx+MMPP/z7v//7VSbr+P4QiUQ4jrvuE+Kd0fwsaLIs+9Wgads2BU1d1ylo0vPJ83w6nU4kEjijCfBwIGgC3DdFUQRBOD09bTQaZ2dnmqbFYjEadoJG00+MbduGYRiG0Ww26f94o9EYjUbFYjGdTm9sbFQqlUqlQg2PfD4fLUaapinLsiRJFKSuckaTYRie53mev9blua5LXTxp8hDLsplMZnNzMxaL3dETcPE3dV1X07TPzmimUikqePpq0KSK9dFopCiK4zj0ueVymRZEcdAZ4EFB0AS4b4Ig1Ov1jx8/tlotSZJYlp3NZrPZjFLFqq8O7pJlWbRB/OHDh19++aXb7TqOEwqFyuXy3/72t729vWw263Us8urDaGNdVVVangyHw15/8sd+soJS5mKxoDOaFDS9M5qUFL/6GHVdn0wmvV5vNps5jsNxXKVS2dvby+fz4XD46U2EB3jUEDQB7g+VTQiCcHx8/OHDh3a7Lcsyx3GSJNHyFSaaPDGGYUwmk2az+fHjxx9//HE8HheLxWKxWCqVXr58ub+/fz4VUdD0Jk+qqkofpa3zdDodDAYf+6Yw1Rs5jkPdnWazGb25uuLWOb1AdF0fj8e9Xk+SpMViwXFcuVyu1Wpe0LzfxwQAl0HQBLgn1LBGUZR2u91oNJrNpiiKVORLjWywovmU0LrdfD4/PT39+eefT09PZVkOhUJ0LrNUKn25R+w4jizLw+GQGgYxDENdIePxOI2dfOzLmXSWQFEUOhhgmib1aWcYhkYfpVKpS4Imjdm0bZv2zfv9vmmaVEu3tbVVq9WonO7eHxMAXAZBE+CeUAHQaDSioNlqtSzLokYtdN81DAMrmk+G11ug0Wi8efNmOp3KspxKpShoFovFC4OmN+LcNE06NJlMJhOJBMuydPTwsS/X0atgPB5TzTidDaVITUHzkhOWruvSNHYKmoPBIBwOU9Dc3Nzc29tjWRZBE+ChQdAEWDpa3FJVtdfrHR8fn56ejkYjWZbpo6ZpKopCQ2KwovlkGIahaRp1UO90OoZhWJYVCAR4ni8UCp/N8qZUSpXprVZrOBxqmubFL57nw+HwE1jOpKApy/JoNJIkybIsan4ZiURisRjHcZFI5JJW7bZt0/PZbrcFQbAsK5fLVSqV7e3tUqmUSqWWN1vL+QO9lgN/WMb3Anhi8DoBWDpqoy1J0unp6Zs3b05PTyVJ8j5qWdZ8PveKgWgzcaXXC7dFc3poXjm9haD54wzDUBceas7v/X06QSHLcr/fPz4+7vV6qqpS0EwkEtTDfKUP6M546/rz+Zx6KlHLBRpufvlAINM02+32+/fv6/W6JEmRSGRjY+P169cHBwe5XI4Kqpb02qGGStQi3rZtlmV5nkfQBLgKvE4Alo4a1sxms9PT059++slr6UJoA12SJIoj3qSTlV4y3BZ1XKegqes6/SHNk+Q4jmpWvIaXlmXpui5J0mAwODk56ff7VAlEBzSj0WggEPhsrvfqHtmt0IombZ3btu33+zmOy2Qyl6/aeoXqnU7n7du3zWaTqug2Nzdfv369tbWVTCbvai2TnufP/kmtAGRZpkOi1BP+Kt1GAQBBE2DpBEFot9tHR0fdblfXdZra533Um/unadp8Po9Go+Fw+MmsYD1P3v9Ty7LOD+kxDGM4HB4dHeXz+Ww2y7Kspmk0NEjTtOFw2O/36Y0HZVDTNL0jiclkkrZrvdbuK32IN+Q4DnXQVFWV5mTSGEzvIZ/P0HQo03Gc6XQ6Go06nc7x8fFkMmFZ9uXLl9ls9tWrV4VCIRaL3dXRTNu2dV3XNO187b+maZIk0cHZbDabzWaDweAVh3wCAIImwNJNJpN6vf7hw4der6dpmjegmdD0P7rDzefzeDzu9/sfaYwADy1jm6b5WdAcDAZHR0eKohiGEYlEBEGYTqfUjkAURaqk9hbSaNaiJEnj8Tgej0cikUgkQlVEj/QnhIKmd5zAC+V0SpX+08uaFDQNw+j3+7///nu9Xm+1WpPJpFQqvXjx4uXLl+vr6/l8/vIR8Ne9PFmWp9PpYDDo9/uj0WgymQiCIIqiKIo+n+9vf/vbv/zLvySTSQRNgCtC0ARYFlrTMk2z3+9/+vSp2Wzatp3P56lr5vndc7rX0oqmqqrhcJhl2ZVeO9wWDUWMRqMsy4bDYcpShmGMRqPj42NVVRVFicVitGDmOI7P5wv9gToZUYW1KIqj0Yj6/mQymUeaLz10SjUej8disWg0SsuZiqIMh8PT01Nar6XHSJNaaX2x3W4PBoP5fB4Oh8vl8s7OTq1W29/fp69zh88JRVt6yzeZTLp/mM1m8/k8EolUq1Uarf40arMA7gGCJsCy0FSY6XTaarXOzs4EQaDWNu12+/j4+HzQpNuqruuz2UxRlOsOEoSHxufzcRyXy+UKhUI6nY7H4xSYTNMcjUaGYUiSNJlM6EPxeDyRSKRSKcuywuGwpmm6rsuyTBu4i8WCZVmO4+ifFF4fbxlKJBIpFosHBwd05rLf79u2PR6PP378aBjGyclJIpFIJBLU9ovOk+i6Ticj8/l8PB7neb5YLJbL5VQqRaM77/DyqKknNcZnGIZOZ9Kr0rZthmFisVgul6NvfYffF+AJe6y/rQAePgqa3W6XgqYsy7Va7dtvvw2Hw8PhcDgcnv/LFDQlSaKCg9VdNdwBCpo+n286nWYymXg8TkXTtKI5Go1osE2pVKJ5NpVKZWdnx+fzaZrW6/VEUQwEAtRWU5blYDBIKbNcLkciEZZlH+9yGgXNQCCg6zr1Fp1MJpPJhAYZpFKpUqlULBbp5eDJZDLlcnljY2Nvb69Wq/E8v7whSX6/n87Cng+ahmHQhyhoJpPJSCSyjO8O8PQgaALcPdoQnM1mJycn7969EwSB7pS7u7tbW1uj0cgbf+Id1jy/oomg+QQEAoFIJFIoFF6/fh2JRKiaxOtgReMWM5lMoVAoFAq5XI5KmLe2tmzbXl9f7/f7oigGg8FAIJDL5WgNb319PRKJPN6Sc3paOI5zXffg4CASiezs7NApVTqXzLJsKpWisicK07SWGYvFaAhnPp+PRCLUyWgZl0dN8l3Xnc1m8Xic47hQKOTz+WhPn+d5juOoXO+xzwIFuDcImgB3j05nUj+jN2/esCybTqfX19f39va2trYajQYtSp2vPaedxNlshhXNp4GiUqFQoDgliqJXAeM4TiqVymQyNPKHSnxoK3Z7ezuTyUwmE2rpT+uXPM8nEglKOdQX6fFmzUAgEIvF6HGtr6/P53M6XkJPC53gpOVberD0Zsyrtafn6vJ2m7dBQTMUComieD5oBoPBaDTqHS2llp/LuACApwdBE+DuUQVxu93udDq9Xm97e7tSqezv76+vr9NGKt1EabWGFjWxovnE0JSaWCwWi8XK5fJ8Pqdx9pSoEolEMpmkVczzmYnW89LpdC6X03WdUhfF0GUMV/T7/dFolI6HMgxDhe1LTbHUSTQUCtFjp2kF8/ncNE3q60Q717FYjOd5Wvi/z0hHmZLQO0Z6eYZCIWosT6/cx3tGFuD+4dUCcPdGo1G9Xj86OhIEIRgM5nK5vb29/f39bDbr9/vppsXzPJUen28KLUkSguZTQl3ZfT4frUTStuxisYhEIhRlPkt19J/hcDiRSESjUdo6DwQCS9qoDYVC+Xx+f3+fgiaVudxnsKPpRwzDeAMeKaBTGF3hqqFhGKIoCoKgqqrruuFwOJlMZrNZjuOwlglwLQiaAHdvNBp9/Pjx8PBQFMVQKERBs1ar0XYqBc14PO44jqqq9CleMZDXyBqeBsqO3ub4Z39+4d//bP1yeUuM4XCYOiFQfyUqfr/P04d+v592w7/80GqPBxiGMZvNKGguFgsKmplMBkET4LoQNAHujGma1Hm71Wo1m01JktLp9M7Ozu7ubjKZDAaDdLYsGAxyHEcrmt7dlM5oTqdT2kZc9UOBu3et5HQ/MSsUChUKBWqWTguu6XT6noPUwzxvSi/G0WikKIoXNLGiCXADCJoAd8Y0TUEQBoNBq9VqtVqGYezt7X377bdbW1uJRMKrYKCgGYvFaNYIfS6tbjIMg6AJ94ZWNHmep/MbgUCAZVnUU6+trem6LgjCeDxG0AS4JQRNgDtAB+8URen1evV6vd/va5pG3W1evHiRTqfP35+8FU0qaPW+gmEYrusqikJzC++5DAKeoUAgwPM8BgR46IVMY7q8+eZfntGkNWDnDzSlnZ5POlBLJ01X/WgAHgQETYA7QP2MRFE8OTn58ccfDcPIZrOFQqFSqdC5rvNlqt6KJhWI0B/S7DsqCaJpKFT6+jA3FgGeJK9RPE1mMgyDBrKfD5p+v5+mg2qapqqqqqqWZdE7Q57n4/E4NdrE6CAAgqAJcAds2zZNUxTF09PTn376qVKprK+v7+7uUtD8rBlKKBSiFc0vg6bjON40FFogQdAEuDcUNGkgk6qqtJx5PmhSjbxhGKqqUrWQIAi6rlMBX7FYpGDq9/sRNAEIgibAbS0Wi/F43O12Dw8Px+Ox67qpVGp3d7dWq1E/o8/CYiAQiEajn61oEtd1LctSVVWSJKo+fvgbcK7rOo7TbDap/mnVl3OxUqlUKpWSyST1zVn15cADZdu2oijj8ViSJNM0vQ4A0WjU7/fruj4cDiVJoibzoihSJKUVzbW1tXQ6nUql1tfXt7a2Njc3g8EgWrsDIGgC3JbrusPh8LfffvMaZ1LLmP39/Xg8/uWSpLd1fv6MpseyLFmWJUkKh8OxWOweH8dN0Ok027Z///33//7v/261Wqu+oot9//33P/zww+7uLo3JxjoxXMhxHFmWKWhSb1GWZWkakM/nk2W5Xq8fHh72+/3xeCyKIs1c8Mr2o9Eoy7L7+/uO49AYITqvueqHBbBKCJoAN+c4jm3buq53u92jo6Nms+k4Tj6fL5VKGxsbxWLxwqHMXjHQlyua3prKbDbjef78jMoHi1Y0e73e27dvDw8PV305F+N5fmdnp1KpXNiyEYCcD5qmaVLXW47j1tbW5vN5v9/vdrudTofWNWVZtm3btm3DMHRdNwyDKoFc1y2Xy1tbW5RTqTM/wLOFoAlwc4ZhTKfT8XjcbDbb7baqqhsbG5ubm7u7u/F4/MKU6Z3RvHDrnFY0KWhmMplHETQBngzHcbytcxrQxTCM3++fzWZHR0eTyWSxWGxvb+/u7lKglCRpPp93Op1Go9HpdOhNl6ZpoigOh8NQKJRIJFb9mABWDEET4OZ0XR+NRo1Gg4JmMBgsFAo//PBDqVSioHnhZwWDwWg0+lcrmqZpyrI8m810XadCBAC4H7Zt04omtbOlFmOBQGA2m6mqyvN8rVar1WqlUokq0Pv9fr/ff/funaIo3W73s6CZSCQw5QsAQRPgJqh/niiKjUbj119/FUWR5/lsNlupVCqVSjwev6TihIqBOI4Lh8M0lNLrw+dtnUuSpOv6o1jRpJtxKpWqVqsP9oLL5TKdzkQ3crgEbZ2PRiPqoOnz+Wj/IZPJpFKpXC63ubm5ubmZyWSSySQdwwiHw5PJhLqYmaZJHZEsy6JuuHivCICgCXBtVP5iGMZkMjk5OXn79m0kEsnn81tbW+vr67lcLhQKXXIwi+avUNCkWoHFYuHdkGjr/BEFTdpezGaztVrtwVYvVavVVCpFyX7V1wIPF61oekGTYZhIJMLzfLVardVq1Wo1Ho/H43GaXO/3+2nsQqFQSKfTPM9TBTp1onAc57G8fgGWCr9zAa7NdV1VVUVR7PV6rVbr7OysVqtVKpW9vb1SqfTVU1l+v9/v97MsS7erQCBANyfyuIImbf0zDJPJZKid06qv6GKbm5vJZJLCwaqvBR4ierNnmuZ8PhcEgQp9qPNDPp+vVqsvX77c2dn5bOQPy7IsyyYSCY7jIpGIYRj0Ud8fVvqYAB4EBE2Aa1ssFjRq8vDwcDqdhsPhQqFwcHBQq9XS6fRXP93n87muS1kzkUjouq4oCvXhO18M9CiCJqGgSfl71ddysVQqlUgkKNbj9g9fsizLMAxJkhRFoVbtjuOEQqFisfjq1Stay2QY5sIfHjqaSd00XdelWnWqN8cPGwCCJsC1LRYLqgA4OTkRRZFmmlPQvOI4EDrXGIlE4vH4fD43DMP70PkVzUdxwIseSyaTSSQSD/aCaRX5r4ICgNe/1hs+Secvi8XiN998UywWeZ7/q46Yi8XCtm0vaPr9fi9oookmAIImwDXQ6DlRFNvt9tnZ2WQyCYVCVGPOMIxpmjQE+Spfaj6f05LJZ3cjrxhI0zTqBf3w9+B8Ph9NZl/1hQDckGEYs9lsOp2qqmrbtt/vDwQCsVgskUikUqlYLHbhjze1aqfVUF3XLcuioBmNRukoJ4ImAIImwDXQDLpOp9NsNrvdrmEYqVRqY2MjGo1qmjYej68eCmlEciAQoMJz789t21ZVdT6fe0ET63AAy6bruiiKgiCoquq6rteDjA5fXjhJknbMaWSDpmmUUBeLBbWVSCQSLMviTDAAgibAlVAHIkVR6HRmq9UajUa0GxuLxWzbHg6H8/n86l9wPp+Lomjb9vneRhQ0F4uFoii6rtMSKVYKHxHTNDVNu+KqNtyJcDhMpXW3+SKfBc1QKETLmV4bsi8/xXVdy7IoZWqapus6vc+kjkgImgAEQRPg66ifkWVZ4/H406dPb9++bbfbuq6vra21Wi3TNDmO4zjuWomQmr3TLDvTNM9/iHqjaJo2m80SiQQNUF7Cw4K7NxgMfv7557dv3676Qp6RnZ2db7/99tWrV7f5Il7Q1DTNdd1IJJJMJjOZTDQaveRopizL0+mUdid8Ph9tuLMsy/M8NdrE1jkAgibAldAG2WQyOT4+/uWXXxRFoRtSu90eDAY0p+5aG9znCwi8knMKtdQ4Wtd1Kk0IBoMImo/FYDD4n//5n//8z/9c9YU8I//4xz8SicQtgyaNk/VWNMPhcDKZTKfTlwdNRVGGw+F0OqW3nYFAIBQK0Z57MpmkOrnbXBXAE4CgCfB1juOMx+N+v39ycjIejw3DSCaTlUrlNpvai8XCMAzDMBRFkWWZblQe13U1TaNmKw+2Czp8KRqNlsvlb775ZtUX8oxQ76FbfhFN06bT6Xg8VlV1sVicX9H8qzeQFDQnkwkFTZ/PR30kaBcCowEACF4JAF9n23av13v37t3R0dFsNotGo9vb2zs7O9Sb/WaVOqZpTqdTURQ7nY63Ee9ZLBa6rs9mM1mWr9KbEx6IQqHwb//2b1tbW6u+kGekUCjc/gnXdV0QhPF4rCiKt6JJgyUvX9GcTCaz2YxatXMcl81mU6nULQ+MAjwlCJoAl6H2JZqmdbvd3377rdPpmKaZSqV2dna+//77XC5343pwTdP6/X6/319bW6OllM++r9c++vzcoAeLDgA82A7zVLblTW1Z3jfKZDKZTOb7779f3reAu+W67mKxUFV1Op1Op1PDMK5+RlNV1fF4LIqiYRg+ny8ajdJUdARNAA+CJsBlqGtmv98/Ozvrdru2bZfL5XK5fHBwUKlUUqnUjb+yrusMwwQCgeFw+GWbd9d1dV2fz+cPP2jSfXo8Ho/H4wdbbZ1KpZLJJMdx1E9q1ZcDD4XjOHSChfq000AgqmRPpVLZbJbjuKtsnXsrmgiaAJ/BL1yAy6iq2u/3P336RI0zk8lkuVz++9//vr6+XqlUOI678Vc2DCMQCASDwbOzsy9vS67rGobxKIIm3XGpTEoUxVVfy8U2NzepVoNWN9GXFAhV3c3nc28gELUbu+KKpqIoX65oJpPJK04IA3gOEDQBLkCrdIvFQhTFs7Mzb6Z5NputVCrb29s0LOQ2txO/308JMh6Ph8Nhij5eQ03vjOYDD5p0V/aCJp0EeIBc143H4zzPYzkTznMcR1EUQRC8SbDBYDAQCHAcF4vFqInml29L6JeDaZqKotBBatM0GYbB1jnAl/A7F+Bitm2bpkmNM9+/f+/3+0ul0vb29vr6ej6fj0Qit4wsdFuifu+hUMjn851v205b59Te6LMumw8QbZ0fHR2dnZ2t+louxvP8xsZGoVDAUhOcZ9u2LMuj0Wg+n1uWxTBMJBI5PxPowo7rNHZS0zSaFkvvBsPhcDQaTafT1EFzFY8G4CFC0AS4AC0oyrI8HA5PT08/ffpEZeY7OzvlcjmTydz+W9AtjQaQhEIhv99PyyQUN6kCiRZLHvKKprf6KwhCoy7Sc14AABEbSURBVNE4PDxc9eVcbHNzkxrjn29Z+jx5P2BUvEX/+z77O8w5vj+s6HqXy7bt+Xw+Go0kSaKgybJsIpHgeZ5l2VAodOFn0clOVVUVRaFpsdStnVY0E4kE3s8AeBA0AT7nuq5pmp1O5+Tk5PDwUJIkao746tWr3d3d2xQAnUd3boZhaGAdz/O6ruu67uUA2jqfz+cPf0UTHgtairMsSxAEqmKZzWaz2czL336/3+/3x+NxKp9KJBJ04vCpFlHRiuZ4PKYVTRpTnk6neZ6/pEsudXenqbOO49BAoGg0GovFaCkUY2MBPE/wFwfAbVDOsyyr3W7/9NNPjUZjPp97QbNard5h+3TKmsFgkA6EUQGQdxnUWfPhr2jCI0InCzVN63Q6x8fHjUaj1Wq1223btl3X9fl8wWAwGAxWKpVqtVqtVjc2NhiGoeW9Jxk0HcehoEkrmn6/nyrHrxI0B4OBFzRp3jrHcfF4/JLWmwDP0BP8xQFwG7qu01i5RqPx6dMnSZI4jqtUKhsbG8ViMZlMXnhm68Z8Pl8gEKBjYTRchP7cdV3Lsmg+kKZpuq4HAoGHWS5Nm4bFYvGbb77heX7Vl3Oxvb29TCZz+5O1jxc18ZEkaTQajUaj09PTk5OTZrPZ6/WobxcFTeqEIMsybQqLoiiKYqlUKpVKmUzG20xf9aO5A3RmgE5CD4dDb+s8Eol8NVhrmjYej7vdriRJFDQjkUgsFotGo6FQ6Nn+jAFcCK8HgD+Zz+etVuvk5OTk5KTb7Uaj0Uqlsr+/v7GxEY1Gqe/33X5Hv98fCoUoA50Pmo7j0Lom3fJZlmVZ9m5j7u3RBQcCgYODg3A4LEnSqq/oYtT9lOd5qrta9eWsgCzLk8mk1WodHh4eHh4KgiAIgiiKsizTTxqt5dO/TyYT2l6nv//q1avXr1+zLBsOh5/ME+g4jm3bNHmy3++LomiaZigUomHl4XD4r15rruuqqjocDlut1nQ6tW07EAiwLEvtI7CWCfAZBE2A/4/utbPZrNFofPjw4fT0dDAYbG9vVyqVf/3Xfy0UChzHLSPnUdCkY3Dnb+FUG0TD0OfzOcMwl9z8VoiWwfb29vb29lZ9LXAx13Xn83m32z06Onrz5s0///lP27YpU9KCtN/vp6BJ73Bms5koirS8x7KsYRiZTKZUKtFJj1U/mltx/2CaJrWqFQRhMBhQewd6v0cvRnoNUiGU+2eyLA8Gg3a7LYqibdssy9KmBD053met+rECPAgImgBr3lEtWZYbjcbR0dHR0dF8PqfJxfl8Pp/P8zy/vJB3SWGvaZqSJE0mE+rt99hv83DPFouFbduWZXW7XXr75Pf7Dw4OotFoNBqlDeJgMEjNvDRNE0VxOp1KkiRJkq7rtm3ruj4YDD5+/BgKhba3t7e3t1mWXfXDujld16fTKa3miqLYaDQajYamaXRSxTTNyWTSaDSoI4Rt28lkMplMappGzwn9ljg8PDw+PvaKgUzTnM/nw+Gw2Wz+/vvvuq5Tk6NVP1aABwFBE2CNik8lSRoMBqenp0dHR/V6PRwOU9AsFAqFQoGOSC7jW1/ePsYLmrFYDK154LrOV/+8f/++3+9ns9mDg4NCoVAsFtPpNMuy0WiUWkJOJpNms9loNNrttmVZqqpaluU4zmAw+P333xeLRSgUqlQqjz1o9no9OhjT6/U6nU6n09E0jU6pWpY1mUwWiwVV2buuu7W1xfM8TQjrdDqDwWAwGDSbzZOTk8FgQAvDlmVJkuS67tnZGeVLv9+PoAlAEDThuaMdNEmSGo3GyclJvV5vt9uCIGQymXg8Hv3DMr41dTG0LIsKNWgr87O/o+v6eDxut9s8zxcKhUgk8mSqMeAeGIYhCMJ4PBYEQdf1cDhcKpVqtVqxWCwWi6lUis7+apqmqqogCPF4PB6PsyxLe+heCVG73fb7/VtbW4qiLOmw8r1hGMY7r5JIJBiGSSQS9NLz+/20D04R/Hz5HX0WLQDH4/HzE2ipRioSieRyOerxjlcogAdBE547VVXH43Gn0/ntt99+++23ZrMpCILP5zvfsHoZ35du5I7jaJo2n89pp/LLoKkoSq/X4zgunU5vbm5Go9Gn2tEQlkHTtHa7Xa/XZVnO5/Msy7548eLFixc8z8disUgkQhMXvT30SCSSz+c5jqNVdipRp+3mSCQymUxmsxmNzHmkPclZli0Wi5FIZHNz05tvTiPOKTLS6ysej1Mb0UQiQT2PisUix3HlcllRFFVVVVXVNI2+Jv268Pv9qT8kEokVP06ABwO3K3jWXNdVFKXf7x8fH7979+7//u//JEmijTMva54fDnlXoZNaq9DBOFVVvaD55YwWVVV7vZ7P59vY2JBlOZFIUPHNnVwGPHmqqnY6nV9//TUej+fz+fX19ZcvX7569eqz9UjqscXzfD6fX1tbC4VCuq7TyUVBECiKMQxDQTOZTFLFzOoe1s1FIhHq1nStz+I4jrLm0q4L4MnC7QqeHV3XVVWlbi+CIHS73U6nQ22rvYWNxWJBO4nHx8ccx4miSBtqqVQqm82m0+kbfF9q8iyKIq2FeP/8+PFju932yhE++yzLsmgS5rt370zTpIHd+Xyellv+akQegNeNVZZlOgqysbFRrVZTqdRX3y/F43Fa8JMkqdls0hwBarZFBTGP+pgmANwnBE14dmgfsNvtHh8f1+v1fr8/HA4nk4mqqqZpUvuSxWKhKArNflRVtdFopFKpdDq9tbXFMMyNg+ZgMDg5OaEDc6IoSpI0n8/H4/FwONQ0zRt0fp5lWYqiWJZlmmaz2axWqwcHB/v7+5ubm5fMYgagnyXbthVFmU6nwWBwY2Nje3s7Go1eJWhWq1XLsprNplcD541FVRQFlS4AcEUImvDseL2pqVGl3++PRqOu614YH6lUwnEc+sve597mW1OQpV1yn89HXcQLhcLln+uVX5zv53fjK4Enj37MqPNlNBpNJBKZTCaVSl2liIdl2Ww2K8tyPB732rvS+qiu61S4di8PAgAePQRNeHaopJTuvhsbG6qqGoZBi5dfCgaDVJ1KiZPWNW/2fcPhcKFQCIVCVEmg6zoVvFOHlK/euem0KM/z2Ww2k8kkk8lHekgO7gdNvvH7/fl8/sWLF6VSiWXZK5aK05FNr1rI7/dTZsWbHAC4LgRNeHa805YbGxtXv2XSos5tBn6Ew+FisUgrl94Ulht8Hd85N7sSeA4Wi4VlWYFAIJ/PHxwcFItFlmWv+DMTCAQYhuE4jmbkMAzj/cReeMADAOCvIGjCc+Slxvv/vkiHcD/8fn8wGIzFYoVCIRwOZ7PZay2B0wo6/dN7vXx1DjgAwGcQNAEAniCGYUKhEMMw4XA4lUpdq/MlJcvzWZP+kA6c0EDwJV8+ADwR+GUBAPAE0XFMv99/g7O8dKTEq4Gjr0PLmTzPcxyHoAkAV4RfFgAA8CfeNAHTNC3LohPGHMclEol0Oh2Px9FXCwCuCEETAAD+xHEcaolgWZZlWXQ6MxaLUY8knucf76BzALhnCJoAAPAnuq6LojgajWRZXiwWHMeVSqWdnR2qKEIlEABcHd6VAgDAn+i6PplMBoMBBc1YLLa+vr63t5fL5YLB4Eo6NgDAI4WgCQAAf6Kq6ng87vf7iqL4/X5qOru7u5vNZoPBIFImAFwdgiYAAPyJoii9Xq/dbhuGEY/HC4VCtVrd2tpKp9OoNweAa8GvDAAA+JPPgmaxWKxWq9vb24FAAAc0AeBaEDQBAGBtbW3Ntm1VVSlljkYjRVFyuVwul6vVatlsNhQKYbQVAFwXgiYAAKxR0JxOp4PBoNvtjkYjXddzudx33323s7OTSqWQMgHgBhA0AQCeOxoFpOv6cDj89OnTYDAwDINl2VKp9OLFi2KxGIvFkDIB4AYQNAEAnjvbti3LEkXx7Ozs7du3hmGUy+VkMrm9vZ1KpViWRQ0QANwMqs4BAJ47x3EMw5jNZhQ0Z7NZqVT69ttvt7e30+l0NBpF0ASAm8HvDgCA58t13bW1NUEQ2u12o9GQZdkrM69Wq5lMJhgMYuAkANwYgiYAwPNFpzOHw+Gvv/56enq6WCy2trZ2dna2trbK5TLLsuhnBAC3gfepAADPlOM4uq5LktTv909PT9vtNsMwOzs7Ozs7lUolm81yHIflTAC4DaxoAgA8U5qmdTqddrvd7XYZhikWi9vb2/v7+1RmvuqrA4CnAEETAOCZ0jSt2Wz+8ssvuq4zDFMoFLa2tl69esVxXDAYXPXVAcBTgKAJAPDsyLIsy3Kv1xsOh7PZLBaLFYvFYrFYLpd5ng+FQqu+QAB4IhA0AQCeHVEUm81mp9MRBGGxWKTT6Vqttrm5mUgkUP0DAHcIQRMA4LlwXddxnMViIQhCs9nsdrumabIsm8vltra2qtXqVcb/OI5DX8Tv9wcCAUwMAoBLIGgCADwXpmnOZjNRFLvd7mQysW27UCjk8/n19XWe578aGV3XXSwWkiSNx2NFUbLZbC6XC4fD93T1APAIIWgCADwXpmlOJpN2u93r9SaTSSAQKBQKr1+/5nk+Eolc/rmUMiloNpvN4XC4v7+fSCQQNAHgEgiaAABPn2mapmmOx+NWq1Wv13VdDwaD8Xicxks6jqOq6iWf7rqubdtUQiQIgiiKtHt+j48AAB4lBE0AgKdP0zRJkrrd7snJyYcPH3K5XLFYzOfzfr9fEASGYS7ZN6e1TE3Tut1up9NZW1vjOC6ZTLIsi3buAHA5BE0AgKeMhkzKsjwYDFqt1unp6dHRUTAYrFarPM+bptnr9S7/CovFwnEcRVHq9Xq9Xs9kMi9evEilUtFoFEETAC6HoAkA8GQ5jmMYhmmajUbj/fv39Xq90WjMZrOTkxPTNOv1uu8Pl3yRxWLhuq5pmoIgCIKQSCR4ni8Wi/F4PBDATQQALoPfEQAATxZNM5dludFo/Pjjj0dHR/P5XJIk2gen8T9XKTanf/H5fAzDbG1tUdAMBoNougkAl0PQBAB4gmgZcj6ft9vtTqdTr9ebzeZgMLAsy7Is0zTn8/m1vmAgEEilUqlUKh6Px2KxaDR6lZAKAM8cgiYAwBPkOI5t25PJ5OPHjz///HOj0RAEwbKsG5eKU9Dc3NwsFoscxyFlAsBVIGgCADxBi8XCtm1RFE9OTt68eaMoiqqqDMMwDHOzg5XRaDSbzVar1VKpxHEcUiYAXAWCJgDAE+T3+4PBYD6f/+6776LRKJUE2bZ94y8YDoeLxWKxWCyXy4lE4k4vFgCeLJ93yhsAAJ4M6mpElUCyLNNQn9v8wmcYJhwOh8PhSCQSiUQwEAgArgJBEwAAAACWAr12AQAAAGApEDQBAAAAYCkQNAEAAABgKRA0AQAAAGApEDQBAAAAYCkQNAEAAABgKRA0AQAAAGApEDQBAAAAYCkQNAEAAABgKRA0AQAAAGApEDQBAAAAYCkQNAEAAABgKRA0AQAAAGApEDQBAAAAYCkQNAEAAABgKRA0AQAAAGApEDQBAAAAYCkQNAEAAABgKRA0AQAAAGApEDQBAAAAYCkQNAEAAABgKRA0AQAAAGApEDQBAAAAYCkQNAEAAABgKRA0AQAAAGApEDQBAAAAYCkQNAEAAABgKRA0AQAAAGApEDQBAAAAYCkQNAEAAABgKRA0AQAAAGApEDQBAAAAYCkQNAEAAABgKRA0AQAAAGApEDQBAAAAYCkQNAEAAABgKRA0AQAAAGApEDQBAAAAYCkQNAEAAABgKRA0AQAAAGApEDQBAAAAYCkQNAEAAABgKRA0AQAAAGApEDQBAAAAYCkQNAEAAABgKRA0AQAAAGApEDQBAAAAYCkQNAEAAABgKRA0AQAAAGAp/h/JuoH76Qwf0QAAAABJRU5ErkJggg==;" vertex="1" parent="7">
                    <mxGeometry x="460" y="124" width="268.17" height="212" as="geometry"/>
                </mxCell>
            </root>
        </mxGraphModel>
    </diagram>
</mxfile>